<?xml version="1.0"?><svg version="1.2" baseProfile="tiny-ps" viewBox="0 0 300 300" xmlns="http://www.w3.org/2000/svg" xmlns:xlink="http://www.w3.org/1999/xlink"><title>SwiftQom</title><g><g fill="#fffffe" transform="matrix(.1 0 0 -.1 0 300)"><path d="M0 1500V0h3000v3000H0V1500z"/></g><g fill="#ddd7bf" transform="matrix(.1 0 0 -.1 0 300)"><path d="M1825 2353c-92-12-495-96-523-108l-32-15-20-32-20-33v-31c0-17 11-86 25-152l24-121-78-128c-42-70-96-162-119-204l-42-76v-27c0-15 6-41 14-60l14-33 28-22 28-22 55 7c31 3 161 28 289 54l233 47 29 28 30 28 10 32 10 31-25 121c-14 67-25 130-25 140v19l58 94c32 52 84 140 115 196l57 100v75l-14 27c-27 53-64 72-121 65zm-282-356c18-8 38-21 44-29l13-15-19-17-18-17-30 17-30 17-16-6-17-6v-39l54-43c30-24 61-56 70-71l16-26v-61l-23-26-23-27-44-5-45-5-35 24c-19 13-36 30-38 38l-2 15 21 13 21 13 22-20 22-21h20c23 0 44 18 44 38v14l-70 67-70 66v28c0 16 5 37 11 48l11 21 31 13c40 18 41 18 80 2zm-223-794-35-18-17-35-18-35v-75h-50v-48l-30 30-31 31-40-6-41-5-24-23-24-23-12-38c-6-21-14-38-17-38-4 0-19 29-35 65l-28 65h-13c-7 0-24-9-38-20l-25-20-18-45c-11-25-22-45-25-45s-14 27-24 60l-18 60h-87l1-12c0-7 17-62 37-123l37-110 41-3 41-3 28 65c15 37 31 66 35 66s20-29 35-66l28-65 41 3 41 3 42 125 41 125 1-128 1-128 43 3 42 3v181l22-4 22-4 3-87 3-86h80l3 88 3 87h38l3-87 3-88 43-3 42-3v181h37l7-40 6-39 32-37 33-37 32-13 32-14h55c30 0 67 5 82 10l27 11 22-21 21-20 27 28 27 28-21 20-20 20 15 28 15 29 10-41 11-41 30-25 30-25 44-6 44-7 45 20 46 20 16 33 17 32-5 50-4 49-31 31-31 30-55 5-56 4-30-12-31-13-18-26c-10-14-21-35-24-46l-5-20-1 53-1 53-14 32-13 32-36 32-37 32-35 7c-20 3-60 4-90 2l-54-5-36-24-35-24-21-42-21-43h-38v110h-9c-5 0-23-11-39-25l-31-26-6-29-7-30h-38v33c0 39 9 54 35 58l20 4v80l-20 3-20 2-35-17zm439-117 27-15 12-26c7-14 12-44 12-65v-40h-9c-5 0-14 7-21 15s-27 17-45 21l-33 6-22-7-22-7 41-42c23-23 41-46 41-50v-9l-47 6-47 5-23 29-23 28v101l16 22c29 42 92 54 143 28zm325-122 16-15v-28c0-31-16-55-43-65l-18-6-26 26-25 25 7 27c4 15 11 33 17 39l10 13h47l15-16zM461 1167c-13-6-33-24-44-39l-20-26v-83l22-23 22-24 62-17c34-9 68-22 75-27l12-10v-48l-25-6c-14-3-35-4-48 0l-24 6-11 25-12 25h-90v-10c0-6 6-26 14-45l15-35 33-20 33-20h116l29 15 30 15 15 30 15 29v38l-1 38-12 16c-20 26-59 46-115 59l-52 12-10 18-9 17 12 17 13 18 29-4 30-3 10-22 10-23h85v15c0 9-7 29-15 45l-15 30-30 15-29 15h-96l-24-13zm646-5c-22-24-21-35 1-55l19-17h27c15 0 36 5 47 10l19 11v48l-19 11c-11 5-33 10-49 10h-29l-16-18zm1093-242V790h90v168l15 12 14 12 18-4 18-3 5-90 5-90 43-3 42-3v140l10 25 10 26h18c10 0 23-5 30-12l12-12V789l43 3 42 3 3 96 3 97-27 31-26 31h-94l-19-14-19-14-20 14-20 14h-67l-29-15-30-16-30 16c-16 8-31 15-35 15-3 0-5-58-5-130zM852 728c-7-7-12-22-12-33v-22l20-18 19-17 26 6c14 4 25 10 25 15v9l-32-2-33-1-3 24-4 24 14 8 13 9 23-5 24-6-7 11-6 10h-55l-12-12zm378-1v-13l-52 3-52 3-8-13-8-12v22l-50 1-50 1v-23l-12 12c-7 7-20 12-30 12h-17l-11-19-10-20 6-15c3-8 15-18 26-22l20-6 10 10 10 10 14-5 14-5v52h30l1-32 1-33 7 29c3 16 11 31 18 33l12 4 3-27 3-27 18-3 17-2v58h30l1-32 1-33 7 29c3 16 11 31 18 33l12 4 3-28 3-28h30l6 30 7 30 1-34 1-35 9 10c5 5 11 20 14 34l4 25 2-27c0-15 6-30 11-33l10-6v25c0 13 2 30 5 38 3 7 0 20-5 28l-10 15-9-14-9-13-6 13-6 14-6-12c-3-7-10-13-15-13h-10l6 10 6 10h-10c-6 0-11-6-11-13zm-240-48v-20l-17 3-18 3-3 18-3 17h41v-21zm470 47v-14l-19 5-18 5-16-16-15-15-6 14-5 15h-19c-38 0-56-46-27-70l14-12 21 7c11 3 20 11 20 16v9l-25-6-25-6v22h55l13-20 12-20 25 2 25 2v48c0 26-2 48-5 48s-5-6-5-14zm-87-33c-7-2-19-2-25 0l-13 5h50l-12-5zm85-10 4-13-17-6-16-7-11 11-10 10 7 12 7 11 16-3c8-2 17-9 20-15zm49 44c-2-7-1-30 3-52l7-40 6 15c11 30 15 62 10 76-6 17-19 18-26 1zm140 0c-2-7-1-30 3-52l7-40 6 15c3 8 8 24 10 35l5 20 1-33 1-33 10 6c6 3 10 17 10 31v24h30l1-32v-33l8 18 7 19 13-16c17-20 35-20 52 0l12 15-25-6-26-7-6 11-7 11h61v9c0 5-7 14-15 21l-14 12-21-7-20-6-1-17v-17l-9 23-9 22h-15c-8 0-17 6-19 13l-5 12-11-15-11-15v13c0 16-16 16-23-1zm150-33c-3-3-12-4-19-1l-13 5 19 1c11 1 17-2 13-5zm60 39c-4-3-7-23-7-44v-38l10-6 10-6 1 33 1 33 7-24c3-13 14-29 23-34l16-11 16 13c8 7 17 22 19 34l4 22 2-34 1-35 9 10c5 5 11 20 14 34l4 25 2-27 1-28 10-1c6-1 24-2 40-3l30-1v55h9c5 0 11-10 13-21l3-22 17-11 18-11 17 18 18 18-26-6-27-7-6 11-7 11h61v9c0 17-24 26-70 26l-45 1-5-26-5-25h-30l-3 24c-2 13-11 31-20 40l-15 16-5-13c-2-6-10-12-18-12h-14v-60h-30v60h-35l15 10 15 10h-16c-9 0-19-3-22-7zm280-39c-3-3-12-4-19-1l-13 5 19 1c11 1 17-2 13-5zm-587 11-12-14 4-17c2-9 10-22 20-27l16-11 16 13c19 16 21 42 4 59-16 16-33 15-48-3zm48-22 4-13-17-6-16-7-11 11-10 10 7 12 7 11 16-3c8-2 17-9 20-15z"/></g><g fill="#87b694" transform="matrix(.1 0 0 -.1 0 300)"><path d="M1755 2339c-27-5-141-28-252-51l-203-41-30-30-29-29-7-33-6-32 27-131 26-131-89-148c-110-183-152-262-152-288 0-11 9-39 20-63l19-43 31-13 31-13 57 9c102 15 466 89 495 100 15 6 39 24 52 40l25 30v41c-1 23-12 94-25 157l-23 115 92 155c51 85 105 178 120 207l26 52v27c0 35-28 91-54 109l-20 15-41-1c-22-1-62-5-90-10zm-212-340c12-6 30-19 40-27l17-15-21-23-21-23-29 21-28 21-16-13c-22-18-19-26 22-62 21-18 52-47 70-64l33-32v-90l-31-26-31-26h-86l-31 26c-17 14-31 32-31 40v13l21 12 21 11 22-21 22-21h42l12 15 12 14-7 18c-3 10-31 38-62 63l-56 45-13 32-14 32 9 23c21 55 85 82 134 57zm-248-822-34-34-7-51-7-52h-37v-60h40V800h90v181l23-3 22-3 3-87 3-88h79v180h37l7-38 6-39 23-34 23-34 39-22 40-23h51c28 0 65 5 83 11l32 11 23-21 22-21 22 23c26 28 27 35 7 57l-15 17 15 36 15 36v92l-15 36c-21 50-42 72-90 94l-40 19h-96l-36-15c-48-20-71-41-94-87l-19-38h-40v100h-15c-9 0-27-11-40-25l-25-24v-51h-51l3 43 3 42 23 10 22 10v65h-62l-33-33zm486-106 29-29V927l-18 16c-9 8-30 21-46 27l-29 11-30-7-29-6 48-49 48-49h-91l-26 21-27 20-10 37-10 38 11 36 10 37 26 21 26 20h89l29-29zm-1319 92-33-16-15-28-14-28v-67l15-22 16-22 76-22 75-22 11-23 10-22-13-16-12-15h-79l-17 30-17 30h-75v-20c0-10 5-30 12-44l11-26 42-20 41-20h37c46 0 96 20 122 50l20 22v96l-19 21-20 21-55 16c-31 8-66 19-78 24l-23 10v18c0 10 5 23 12 30l12 12h55l15-16c9-8 16-20 16-25v-9h82l-7 28c-13 53-71 92-137 92h-33l-33-17zm656 6-18-10v-49l25-12 26-12 26 10c14 5 31 17 37 27l11 18-24 20-23 19h-22c-11 0-29-5-38-11zm-245-143-30-26-23-52-23-53-21 70-22 70-43 3-44 3 7-18c4-10 21-64 39-120l31-103h84l27 65c16 36 31 65 35 65s19-29 35-65l27-65h83l38 121c21 67 36 123 33 126s-22-3-43-13l-38-19-20-52c-11-29-23-53-26-53s-16 26-29 58c-12 31-28 63-35 70l-12 13-30-25zm1111 14c-11-4-33-22-47-40l-27-32v-89l15-29 15-30 30-15 29-15h111l36 33 35 32 6 40 5 41-15 37-16 37-33 20-33 20-45-1c-25 0-54-4-66-9zm106-79c5-11 10-33 10-50v-30l-22-15c-30-21-44-20-68 4l-20 20v23c0 12 7 33 16 45l15 22h58l11-19zm112-38 3-128h80l3 80 3 79 11 13c6 7 19 13 29 13h18l11-19 10-20V789l38 3 37 3 5 80c3 44 9 86 13 93l8 12h49l5-22c3-13 6-54 7-93l3-70h80v207l-28 24-28 24h-70l-28-15-28-14-19 14-19 14-36 1h-36l-27-21-26-20-26 20c-15 12-31 21-36 21h-9l3-127zm-1082-3V800h80v171l-15 28c-13 26-33 41-56 41h-9V920zM856 724c-21-21-20-40 4-64 23-23 30-24 53-7l18 12h-66v60l32-1 33-2-6 9c-3 5-16 9-29 9h-24l-15-16zm406-29 1-50 4 28 4 27h29l1-27 1-28 8 35 8 35-8 15-9 15-1-12v-13h-14c-8 0-17 6-19 13-3 6-5-10-5-38zm198 29v-16l-16 6-17 6-13-11c-8-6-14-20-14-30v-18l16-9 17-9 18 4 19 5v44c0 24-2 44-5 44s-5-7-5-16zm-4-53c-4-6-16-11-27-11h-19v38l13 5 12 5 14-13 13-13-6-11zm54 24v-45h20v90h-20v-45zm140 0v-45h20v90h-20v-45zm33 0v-50l4 22c2 12 11 27 18 33l15 12 4-13c3-8 7-23 10-34l5-20-2 35-2 35-22-2-22-3-4 18c-3 9-5-5-4-33zm174 32c-3-8-2-29 3-48l8-34 2 30 2 30 9-27c6-14 16-29 24-32l14-5 16 15c8 9 15 24 15 35v19h-20v-50h-30v48l-16 6-15 6 6 10 6 10h-9c-6 0-12-6-15-13zm103-32v-45h20v90h-20v-45zM952 708c-7-7-12-20-12-30v-17l18-9c18-10 42-6 42 7v8l-25-5-25-4v40l16 6 15 6 17-30c21-37 30-38 34-5 2 14 7 27 13 28l10 2 6-30 7-30 1 26 1 27 15 6 15 5v-59h39l3 25c2 14 7 27 13 28l10 2 6-30 7-30 1 21c0 12 8 27 16 34l15 12 6-31 7-31h27v62l-15-5-14-6-6 9-5 9-40-4c-22-2-44-6-49-9l-10-6-5 9-6 10-43-5c-59-7-60-7-77 0l-16 6-12-12zm378-3-12-14 7-20c3-10 12-22 19-24l14-6 18 14 19 13-27-5-26-5-6 11-7 11h61v8c0 12-22 32-36 32-6 0-17-7-24-15zm50-11c0-2-9-4-21-4h-20l6 10 6 9 14-6c8-3 15-7 15-9zm172 14c-7-7-12-20-12-30v-17l17-10 17-9 18 9 18 10v17c0 20-18 42-35 42-6 0-16-5-23-12zm48-24c0-8-7-17-16-21l-15-6-11 11-11 11 12 15 12 15 15-6c8-3 14-12 14-19zm162 24c-7-7-12-20-12-30v-17l18-9c18-10 42-6 42 7v8l-25-5-25-4v22h60v8c0 12-22 32-35 32-6 0-16-5-23-12zm33-8 6-10h-46l15 10c19 12 18 12 25 0zm246-7-1-33h-39l-4 28-4 27-2-26-1-27 16-12 15-13 15 15 16 15-5 29-4 29-2-32zm32 20-13-5 1-31 2-32 4 25c3 14 10 31 15 38 11 13 10 13-9 5zm29-5c-7-7-12-20-12-30v-17l19-10 18-10 19 15 19 14-26-6-27-6-6 11-7 11h61v8c0 12-22 32-35 32-6 0-16-5-23-12zm33-8 6-10h-46l15 10c19 12 18 12 25 0z"/></g><g fill="#fa862f" transform="matrix(.1 0 0 -.1 0 300)"><path d="M1810 2343c-14-2-132-24-263-50l-239-46-28-24-29-24-10-32-11-33 25-123c14-68 25-132 25-142 0-9-22-53-48-96-27-43-79-131-117-196l-67-118 4-50 5-50 29-30 29-31 64 6c77 7 508 94 534 107 23 13 57 68 57 94 0 11-12 79-26 151l-25 130 85 141c47 78 101 173 122 212l36 70-7 37-7 38-33 33-33 33-23-1c-13-1-35-3-49-6zm-244-354 34-21v-13c0-8-10-21-22-29l-22-16-16 15c-20 18-56 20-66 4l-7-12 70-66 71-66 7-23 6-22-11-34-11-34-24-16-24-16h-40c-50 0-86 16-107 47-8 14-14 26-12 27 2 2 14 10 27 19l24 16 23-24c26-29 46-31 68-10l15 16-5 13c-3 8-31 37-63 65l-58 50-13 30-12 31 12 30 13 31 26 14c14 8 39 14 55 15h29l33-21zm-271-812-34-34-7-51-7-52h-37v-60h40V800h90v181l23-3 22-3 3-87 3-88h79v180h38l7-37c3-21 17-55 31-75l24-37 30-16c16-8 50-18 74-21l45-7 47 12 46 12 18-16c22-20 33-19 55 5l18 20-17 19-17 18 17 62 17 61-12 55-13 56-34 34-34 34-37 10c-75 21-152 8-202-35l-30-25-13-34-12-35h-46v100h-15c-9 0-27-11-40-25l-25-24v-51h-51l3 43 3 42 23 10 22 10v65h-62l-33-33zm473-93 24-16 15-35 15-36-7-33-6-33-32 19-32 20h-89l48-49 48-49-29-6-30-7-24 10c-13 5-35 21-49 36l-25 27v107l29 30c42 43 92 49 144 15zm-1306 79-33-16-15-28-14-28v-67l15-22 16-22 76-22 75-22 11-23 10-22-13-16-12-15h-79l-17 30-17 30h-75v-20c0-10 5-30 12-44l11-26 42-20 41-20h37c46 0 96 20 122 50l20 22v96l-19 21-20 21-55 16c-31 8-66 19-78 24l-23 10v18c0 10 5 23 12 30l12 12h55l15-16c9-8 16-20 16-25v-9h82l-7 28c-13 53-71 92-137 92h-33l-33-17zm656 6-18-10v-49l25-12 26-12 26 10c14 5 31 17 37 27l11 18-24 20-23 19h-22c-11 0-29-5-38-11zm-245-143-30-26-23-52-23-53-21 70-22 70-43 3-44 3 7-18c4-10 21-64 39-120l31-103h84l27 65c16 36 31 65 35 65s19-29 35-65l27-65h83l38 121c21 67 36 123 33 126s-22-3-43-13l-38-19-20-52c-11-29-23-53-26-53s-16 26-29 58c-12 31-28 63-35 70l-12 13-30-25zm1110 9-33-14-20-33-20-33v-77l17-29 17-29 32-15 32-15h89l34 23 34 23 14 42 13 43-17 46-17 45-42 19-41 19-30-1c-16 0-45-6-62-14zm88-56c11-5 24-22 30-36l10-27-12-28-12-28-25-7-25-6-16 10c-9 6-20 21-25 35l-9 25 7 27 7 27 22 9c29 11 25 12 48-1zm231 51-33-20-22 15c-12 8-27 15-35 15h-13l3-117 3-118 42-3 42-3 3 88 3 88 29 3 29 4 8-14 9-13V800h80v158l14 12 15 12 23-4 23-3 3-87 3-88h79v198l-19 23-19 24h-100l-18-17-19-16-24 19-23 19h-53l-33-20zM1120 920V800h80v171l-15 28c-13 26-33 41-56 41h-9V920zM859 723l-14-18 15 11c8 7 24 14 35 17l20 5-21 1-22 1-13-17zm404-28v-50l4 28c2 15 2 37 0 50l-4 22v-50zm40 0v-50l4 28c2 15 2 37 0 50l-4 22v-50zm155 28c-2-10-1-31 3-48l7-30 1 48c1 48-3 61-11 30zm222-28c0-27 2-46 5-43 8 8 9 77 2 85l-7 6v-48zm181-2c1-53 6-49 11 10l4 37h-16l1-47zm-914 10c-9-9-9-41 1-46l7-5v29c0 16 0 29-1 29 0 0-4-3-7-7zm117-7c-3-8-4-23-2-33l4-18 5 33c6 34 2 42-7 18zm67-2 1-19 5 13c3 7 2 16-1 19-3 4-6-2-5-13zm41-14v-35l5 18c2 9 2 25 0 35l-5 17v-35zm202 22 7-12h-61v-9c0-5 8-15 18-22l17-14-14 18-13 17h62v9c0 6-5 13-12 17l-11 7 7-11zm33 1c-9-9-9-41 1-46l7-5v29c0 16 0 29-1 29 0 0-4-3-7-7zm190-14 7-23 4 13c2 7-1 18-6 23l-11 11 6-24zm135-9v-35l5 18c2 9 2 25 0 35l-5 17v-35zm25 23c-10-10-8-41 3-48l10-6-6 15-6 15 34 4 33 4-33 1-33 2 6 10c7 11 2 13-8 3zm233-17c0-14 4-27 8-30l8-5-4 30c-5 35-12 38-12 5zm49-4-6-33 10 10 9 9-4 23-4 24-5-33zm23-2v-35l5 18c2 9 2 25 0 35l-5 17v-35zm31 15c-7-21-4-22 37-14l35 6-33 2-33 1 6 10c3 6 4 10 0 10-3 0-8-7-12-15zm-871-25v-25l5 13c2 6 2 18 0 25l-5 12v-25zm-372 1c0-10 19-25 25-20 1 2-3 10-11 17l-14 13v-10zm1075-11-6-10h10c6 0 11 5 11 10 0 6-2 10-4 10-3 0-8-4-11-10z"/></g><g fill="#24c45e" transform="matrix(.1 0 0 -.1 0 300)"><path d="M1810 2343c-14-2-132-24-263-50l-239-46-28-24-29-24-10-32-11-33 25-123c14-68 25-132 25-142 0-9-22-53-48-96-27-43-79-131-117-196l-67-118 4-50 5-50 29-30 29-31 64 6c77 7 508 94 534 107 23 13 57 68 57 94 0 11-12 79-26 151l-25 130 85 141c47 78 101 173 122 212l36 70-7 37-7 38-33 33-33 33-23-1c-13-1-35-3-49-6zm-244-354 34-21v-13c0-8-10-21-22-29l-22-16-16 15c-20 18-56 20-66 4l-7-12 70-66 71-66 7-23 6-22-11-34-11-34-24-16-24-16h-40c-50 0-86 16-107 47-8 14-14 26-12 27 2 2 14 10 27 19l24 16 23-24c26-29 46-31 68-10l15 16-5 13c-3 8-31 37-63 65l-58 50-13 30-12 31 12 30 13 31 26 14c14 8 39 14 55 15h29l33-21zm61-824c-22-7-50-23-63-36l-23-22-17-44-17-43 6-56 6-56 25-39 26-38 30-16c16-8 50-18 74-21l45-7 47 12 46 12 18-16c22-20 33-19 55 5l18 20-17 19-17 18 17 62 17 61-12 55-13 56-34 34-34 34-37 10c-51 14-100 13-146-4zm141-81 24-16 15-35 15-36-7-33-6-33-32 19-32 20h-89l48-49 48-49-29-6-30-7-24 10c-13 5-35 21-49 36l-25 27v107l29 30c42 43 92 49 144 15zm215-49-33-14-20-33-20-33v-77l17-29 17-29 32-15 32-15h89l34 23 34 23 14 42 13 43-17 46-17 45-42 19-41 19-30-1c-16 0-45-6-62-14zm88-56c11-5 24-22 30-36l10-27-12-28-12-28-25-7-25-6-16 10c-9 6-20 21-25 35l-9 25 7 27 7 27 22 9c29 11 25 12 48-1zm231 51-33-20-22 15c-12 8-27 15-35 15h-13l3-117 3-118 42-3 42-3 3 88 3 88 29 3 29 4 8-14 9-13V800h80v158l14 12 15 12 23-4 23-3 3-87 3-88h79v198l-19 23-19 24h-100l-18-17-19-16-24 19-23 19h-53l-33-20zM859 723l-14-18 15 11c8 7 24 14 35 17l20 5-21 1-22 1-13-17zm404-28v-50l4 28c2 15 2 37 0 50l-4 22v-50zm40 0v-50l4 28c2 15 2 37 0 50l-4 22v-50zm155 28c-2-10-1-31 3-48l7-30 1 48c1 48-3 61-11 30zm222-28c0-27 2-46 5-43 8 8 9 77 2 85l-7 6v-48zm181-2c1-53 6-49 11 10l4 37h-16l1-47zm-914 10c-9-9-9-41 1-46l7-5v29c0 16 0 29-1 29 0 0-4-3-7-7zm117-7c-3-8-4-23-2-33l4-18 5 33c6 34 2 42-7 18zm67-2 1-19 5 13c3 7 2 16-1 19-3 4-6-2-5-13zm41-14v-35l5 18c2 9 2 25 0 35l-5 17v-35zm202 22 7-12h-61v-9c0-5 8-15 18-22l17-14-14 18-13 17h62v9c0 6-5 13-12 17l-11 7 7-11zm33 1c-9-9-9-41 1-46l7-5v29c0 16 0 29-1 29 0 0-4-3-7-7zm190-14 7-23 4 13c2 7-1 18-6 23l-11 11 6-24zm135-9v-35l5 18c2 9 2 25 0 35l-5 17v-35zm25 23c-10-10-8-41 3-48l10-6-6 15-6 15 34 4 33 4-33 1-33 2 6 10c7 11 2 13-8 3zm233-17c0-14 4-27 8-30l8-5-4 30c-5 35-12 38-12 5zm49-4-6-33 10 10 9 9-4 23-4 24-5-33zm23-2v-35l5 18c2 9 2 25 0 35l-5 17v-35zm31 15c-7-21-4-22 37-14l35 6-33 2-33 1 6 10c3 6 4 10 0 10-3 0-8-7-12-15zm-871-25v-25l5 13c2 6 2 18 0 25l-5 12v-25zm-372 1c0-10 19-25 25-20 1 2-3 10-11 17l-14 13v-10zm1075-11-6-10h10c6 0 11 5 11 10 0 6-2 10-4 10-3 0-8-4-11-10z"/></g><g fill="#099624" transform="matrix(.1 0 0 -.1 0 300)"><path d="m1483 2147-23-13-89-137-89-137 19-88c10-48 30-123 44-168l25-80 21-20 21-19h84l26 17 25 17 88 135 87 136-27 117c-15 65-36 142-47 170l-19 53-22 15-21 15h-41l-40-1-22-12zm76-151c15-8 33-21 39-29l12-14-24-22-25-23-23 16c-25 18-54 21-63 6l-6-10 77-74 77-75-6-41-5-42-18-19c-9-10-34-24-54-30l-37-11-37 12-36 11-20 26c-26 34-25 40 8 57l27 14 27-23 27-23 21 5 20 5v40l-70 67-70 66v67l29 29 29 29h73l28-14zm79-830c-21-8-48-21-61-29l-24-16-23-48-22-48 5-52 6-53 21-39 22-39 38-21 38-21 43-6 44-6 42 15 41 14 20-19 20-20 26 17c31 21 32 27 6 50l-19 17 16 31 16 31v122l-16 31c-44 83-147 122-239 89zm117-72 33-16 16-33c18-36 21-82 7-104l-9-14-27 22-28 21h-77v-8c0-4 18-25 40-47l40-39-13-8c-19-12-55-9-87 7l-30 15-15 30-15 29v72l16 30 15 31 32 13c42 19 62 18 102-1zm227-64-43-19-14-35c-29-69-14-124 44-163l34-23h78l34 14 34 14 15 31 16 30v89l-26 31-25 30-37 11c-50 14-60 13-110-10zm107-66 21-27v-21c0-12-7-32-16-44l-15-22h-52l-19 17-18 16v67l20 20 20 20h39l20-26zm218 66-38-21-22 16c-12 8-25 15-29 15h-8V800h70v69c0 80 5 98 31 112l19 10 20-11 20-11V800h80v170l25 12 26 12 17-18 17-17 3-79 4-80h68v196l-20 21-19 21-31 7-31 7-39-20-39-19-13 13c-7 8-27 16-43 19l-30 6-38-21zM859 723l-14-18 15 11c8 7 24 14 35 17l20 5-21 1-22 1-13-17zm404-28v-50l4 28c2 15 2 37 0 50l-4 22v-50zm40 0v-50l4 28c2 15 2 37 0 50l-4 22v-50zm155 28c-2-10-1-31 3-48l7-30 1 48c1 48-3 61-11 30zm222-28c0-27 2-46 5-43 8 8 9 77 2 85l-7 6v-48zm181-2c1-53 6-49 11 10l4 37h-16l1-47zm-914 10c-9-9-9-41 1-46l7-5v29c0 16 0 29-1 29 0 0-4-3-7-7zm117-7c-3-8-4-23-2-33l4-18 5 33c6 34 2 42-7 18zm67-2 1-19 5 13c3 7 2 16-1 19-3 4-6-2-5-13zm41-14v-35l5 18c2 9 2 25 0 35l-5 17v-35zm202 22 7-12h-61v-9c0-5 8-15 18-22l17-14-14 18-13 17h62v9c0 6-5 13-12 17l-11 7 7-11zm33 1c-9-9-9-41 1-46l7-5v29c0 16 0 29-1 29 0 0-4-3-7-7zm190-14 7-23 4 13c2 7-1 18-6 23l-11 11 6-24zm135-9v-35l5 18c2 9 2 25 0 35l-5 17v-35zm25 23c-10-10-8-41 3-48l10-6-6 15-6 15 34 4 33 4-33 1-33 2 6 10c7 11 2 13-8 3zm233-17c0-14 4-27 8-30l8-5-4 30c-5 35-12 38-12 5zm49-4-6-33 10 10 9 9-4 23-4 24-5-33zm23-2v-35l5 18c2 9 2 25 0 35l-5 17v-35zm31 15c-7-21-4-22 37-14l35 6-33 2-33 1 6 10c3 6 4 10 0 10-3 0-8-7-12-15zm-871-25v-25l5 13c2 6 2 18 0 25l-5 12v-25zm-372 1c0-10 19-25 25-20 1 2-3 10-11 17l-14 13v-10zm1075-11-6-10h10c6 0 11 5 11 10 0 6-2 10-4 10-3 0-8-4-11-10z"/></g></g></svg>