<?xml version="1.0" standalone="no"?>
<!DOCTYPE svg PUBLIC "-//W3C//DTD SVG 20010904//EN"
 "http://www.w3.org/TR/2001/REC-SVG-20010904/DTD/svg10.dtd">
<svg version="1.0" xmlns="http://www.w3.org/2000/svg"
 width="2000.000000pt" height="2000.000000pt" viewBox="0 0 2000.000000 2000.000000"
 preserveAspectRatio="xMidYMid meet">

<g transform="translate(0.000000,2000.000000) scale(0.100000,-0.100000)"
fill="#000000" stroke="none">
<path d="M10181 14360 c-187 -26 -370 -120 -474 -242 -24 -29 -107 -154 -184
-278 -77 -124 -223 -351 -325 -505 -238 -361 -546 -840 -559 -868 -20 -44 200
-1005 351 -1535 101 -353 203 -586 297 -680 103 -104 243 -155 423 -155 228
-1 430 79 567 227 34 35 107 141 173 247 62 101 204 321 314 489 384 584 606
935 606 957 0 49 -177 837 -261 1163 -120 463 -183 654 -288 873 -57 119 -128
195 -229 246 -109 55 -276 80 -411 61z m-26 -975 c143 -30 284 -117 427 -262
l77 -78 -157 -141 -156 -140 -81 81 c-97 100 -166 137 -252 138 -32 0 -74 -5
-94 -12 -65 -21 -116 -95 -103 -149 19 -81 75 -135 440 -434 285 -233 386
-352 437 -513 33 -103 32 -281 -2 -384 -66 -201 -234 -353 -458 -412 -109 -30
-306 -30 -414 -1 -146 39 -281 125 -377 240 -50 61 -148 210 -141 216 13 11
351 216 357 216 4 0 24 -27 45 -59 55 -85 133 -159 202 -192 107 -51 245 -35
320 38 69 67 82 141 41 229 -31 67 -101 135 -316 307 -201 162 -429 385 -478
469 -105 179 -114 366 -25 543 14 27 62 86 107 131 127 127 261 182 446 183
47 0 117 -6 155 -14z"/>
<path d="M11235 7860 c-335 -25 -595 -133 -805 -336 -180 -173 -279 -365 -346
-671 -24 -109 -24 -409 1 -548 50 -285 159 -509 334 -685 127 -128 277 -219
459 -281 340 -115 794 -92 1109 57 39 19 75 34 79 34 4 0 67 -58 139 -130 86
-85 139 -130 153 -130 24 0 77 45 230 192 79 76 102 105 102 125 0 20 -29 56
-129 157 l-129 131 20 30 c42 64 118 234 143 320 80 278 79 614 -2 895 -103
359 -364 635 -718 763 -176 63 -426 93 -640 77z m239 -500 c291 -42 517 -240
596 -520 47 -169 46 -365 -1 -542 -32 -120 -32 -120 -116 -39 -169 162 -345
240 -544 241 -67 0 -245 -26 -322 -47 -26 -8 -17 -18 278 -313 168 -168 305
-308 305 -312 0 -4 -28 -16 -63 -27 -258 -79 -520 -34 -719 124 -276 220 -358
717 -176 1067 138 267 443 414 762 368z"/>
<path d="M13522 6989 c-245 -23 -476 -138 -612 -302 -63 -77 -133 -216 -162
-322 -30 -112 -32 -365 -4 -475 43 -169 108 -285 221 -396 150 -148 343 -226
615 -249 91 -8 262 9 364 35 318 81 524 282 608 592 20 71 23 106 22 248 -1
194 -17 271 -88 415 -82 165 -197 277 -371 361 -109 53 -213 81 -354 94 -116
11 -118 11 -239 -1z m294 -459 c139 -68 214 -213 214 -415 0 -201 -78 -344
-223 -411 -55 -25 -73 -29 -157 -28 -81 0 -103 4 -152 26 -112 52 -192 156
-219 286 -17 85 -7 253 20 324 67 173 203 264 380 254 57 -4 89 -12 137 -36z"/>
<path d="M15645 6991 c-175 -28 -344 -117 -474 -250 -40 -42 -44 -44 -53 -25
-20 37 -134 140 -192 173 -32 19 -97 46 -145 62 l-86 27 -3 -803 c-1 -511 1
-813 8 -829 5 -15 21 -31 35 -36 40 -15 444 -13 475 3 l25 13 5 484 c6 534 6
536 71 633 58 87 172 130 285 107 50 -10 66 -19 105 -59 81 -84 83 -96 89
-671 l5 -494 25 -13 c19 -10 82 -13 252 -11 203 3 229 5 245 21 17 16 18 55
23 520 l5 502 26 55 c52 109 124 153 254 154 127 1 190 -38 232 -146 15 -38
18 -104 23 -555 5 -474 6 -514 23 -530 16 -16 41 -18 256 -18 187 0 241 3 254
14 15 12 17 66 17 591 0 537 -1 582 -19 652 -50 196 -170 331 -348 393 -104
36 -233 49 -361 35 -181 -19 -302 -73 -418 -187 l-64 -62 -24 37 c-58 92 -163
166 -279 196 -69 18 -209 27 -272 17z"/>
<path d="M8232 4928 c-27 -27 -7 -78 29 -78 21 0 49 26 49 45 0 35 -53 58 -78
33z"/>
<path d="M12433 4930 c-32 -13 -43 -41 -43 -109 l0 -61 -30 0 c-25 0 -30 -4
-30 -25 0 -21 5 -25 30 -25 l30 0 0 -195 0 -195 30 0 30 0 0 195 0 195 45 0
c41 0 45 2 45 25 0 23 -4 25 -45 25 l-45 0 0 60 c0 55 2 60 25 66 14 3 34 4
45 1 16 -4 20 0 20 18 0 32 -56 45 -107 25z"/>
<path d="M5854 4917 c-141 -36 -224 -147 -224 -297 0 -88 22 -149 76 -209 61
-68 125 -94 234 -95 102 -1 170 20 226 68 39 33 39 34 20 55 l-18 20 -43 -34
c-136 -112 -328 -77 -408 75 -26 50 -29 62 -25 131 4 60 10 86 32 122 28 49
87 96 145 115 81 28 190 6 259 -53 l39 -34 19 20 c19 21 19 22 -19 54 -71 61
-208 88 -313 62z"/>
<path d="M8420 4845 l0 -85 -35 0 c-31 0 -35 -3 -35 -25 0 -22 4 -25 35 -25
l35 0 0 -195 0 -195 30 0 30 0 0 195 0 195 45 0 c41 0 45 2 45 25 0 23 -4 25
-45 25 l-45 0 0 85 0 85 -30 0 -30 0 0 -85z"/>
<path d="M8650 4845 l0 -85 -35 0 c-31 0 -35 -3 -35 -25 0 -22 4 -25 35 -25
l35 0 0 -195 0 -195 30 0 30 0 0 195 0 195 45 0 c41 0 45 2 45 25 0 23 -4 25
-45 25 l-45 0 0 85 0 85 -30 0 -30 0 0 -85z"/>
<path d="M9730 4804 l0 -126 -39 35 c-71 64 -171 72 -258 21 -109 -64 -141
-215 -68 -326 72 -109 243 -126 343 -35 l22 20 0 -36 c0 -33 3 -37 25 -37 l25
0 0 305 0 305 -25 0 -25 0 0 -126z m-113 -95 c149 -56 149 -282 0 -338 -137
-52 -276 94 -223 233 36 93 133 139 223 105z"/>
<path d="M10100 4845 l0 -85 -35 0 c-31 0 -35 -3 -35 -25 0 -22 4 -25 35 -25
l35 0 0 -195 0 -195 30 0 30 0 0 195 0 195 45 0 c41 0 45 2 45 25 0 23 -4 25
-45 25 l-45 0 0 85 0 85 -30 0 -30 0 0 -85z"/>
<path d="M11030 4845 l0 -85 -35 0 c-31 0 -35 -3 -35 -25 0 -22 4 -25 35 -25
l35 0 0 -195 0 -195 30 0 30 0 0 195 0 195 45 0 c41 0 45 2 45 25 0 23 -4 25
-45 25 l-45 0 0 85 0 85 -30 0 -30 0 0 -85z"/>
<path d="M11220 4625 l0 -305 30 0 30 0 0 133 c0 118 3 138 23 177 28 57 77
90 131 90 95 0 116 -46 116 -250 l0 -150 30 0 30 0 0 138 c-1 208 -21 265
-105 297 -61 24 -122 14 -180 -31 l-45 -34 0 120 0 120 -30 0 -30 0 0 -305z"/>
<path d="M13090 4845 l0 -85 -35 0 c-31 0 -35 -3 -35 -25 0 -22 4 -25 35 -25
l35 0 0 -195 0 -195 30 0 30 0 0 195 0 195 45 0 c41 0 45 2 45 25 0 23 -4 25
-45 25 l-45 0 0 85 0 85 -30 0 -30 0 0 -85z"/>
<path d="M6406 4755 c-56 -20 -87 -45 -120 -99 -39 -62 -42 -158 -8 -223 45
-85 141 -133 240 -118 58 9 88 24 129 67 84 88 85 217 2 312 -61 69 -155 92
-243 61z m137 -46 c32 -17 77 -60 93 -91 22 -42 18 -126 -9 -173 -28 -50 -88
-85 -145 -85 -53 0 -89 18 -130 64 -97 110 -15 294 131 296 21 0 48 -5 60 -11z"/>
<path d="M6923 4759 c-17 -5 -45 -23 -62 -40 l-31 -31 0 36 c0 33 -2 36 -30
36 l-30 0 0 -220 0 -220 29 0 29 0 4 148 c4 164 14 198 71 232 59 36 127 20
156 -37 7 -13 11 -84 11 -182 l0 -161 29 0 29 0 4 148 c4 164 15 198 71 232
49 30 102 26 138 -9 l29 -29 0 -171 0 -171 30 0 30 0 0 153 c0 83 -5 170 -11
191 -32 114 -167 141 -257 51 l-43 -43 -14 28 c-28 54 -111 81 -182 59z"/>
<path d="M7663 4759 c-17 -5 -45 -23 -62 -40 l-31 -31 0 36 c0 33 -2 36 -30
36 l-30 0 0 -220 0 -220 29 0 29 0 4 148 c4 164 14 198 71 232 59 36 127 20
156 -37 7 -13 11 -84 11 -182 l0 -161 29 0 29 0 4 148 c4 164 15 198 71 232
49 30 102 26 138 -9 l29 -29 0 -171 0 -171 30 0 30 0 0 153 c0 83 -5 170 -11
191 -32 114 -167 141 -257 51 l-43 -43 -14 28 c-28 54 -111 81 -182 59z"/>
<path d="M8980 4758 c-50 -14 -95 -52 -127 -105 -63 -108 -19 -261 92 -321 41
-22 169 -22 211 0 31 17 104 91 104 106 0 5 -10 14 -23 19 -20 10 -26 7 -46
-23 -13 -18 -42 -42 -65 -54 -106 -51 -220 6 -241 123 l-7 37 201 0 202 0 -7
38 c-25 140 -155 220 -294 180z m151 -58 c38 -20 79 -70 79 -97 0 -10 -39 -13
-160 -13 -112 0 -160 3 -160 11 0 7 9 27 21 46 43 68 142 92 220 53z"/>
<path d="M10426 4755 c-56 -20 -87 -45 -120 -99 -39 -62 -42 -158 -8 -223 45
-85 141 -133 240 -118 58 9 88 24 129 67 84 88 85 217 2 312 -61 69 -155 92
-243 61z m137 -46 c32 -17 77 -60 93 -91 22 -42 18 -126 -9 -173 -28 -50 -88
-85 -145 -85 -53 0 -89 18 -130 64 -97 110 -15 294 131 296 21 0 48 -5 60 -11z"/>
<path d="M11820 4758 c-50 -14 -95 -52 -127 -105 -63 -108 -19 -261 92 -321
41 -22 169 -22 211 0 31 17 104 91 104 106 0 5 -10 14 -23 19 -20 10 -26 7
-46 -23 -13 -18 -42 -42 -65 -54 -106 -51 -220 6 -241 123 l-7 37 201 0 202 0
-7 38 c-25 140 -155 220 -294 180z m151 -58 c38 -20 79 -70 79 -97 0 -10 -39
-13 -160 -13 -112 0 -160 3 -160 11 0 7 9 27 21 46 43 68 142 92 220 53z"/>
<path d="M13844 4756 c-17 -8 -39 -24 -48 -37 l-16 -23 0 32 c0 29 -3 32 -30
32 l-30 0 0 -220 0 -220 30 0 30 0 0 133 c0 72 5 150 11 171 14 52 59 96 97
96 36 0 63 27 41 41 -20 12 -49 11 -85 -5z"/>
<path d="M14090 4758 c-50 -14 -95 -52 -127 -105 -63 -108 -19 -261 92 -321
41 -22 169 -22 211 0 31 17 104 91 104 106 0 5 -10 14 -23 19 -20 10 -26 7
-46 -23 -13 -18 -42 -42 -65 -54 -106 -51 -220 6 -241 123 l-7 37 201 0 202 0
-7 38 c-25 140 -155 220 -294 180z m151 -58 c38 -20 79 -70 79 -97 0 -10 -39
-13 -160 -13 -112 0 -160 3 -160 11 0 7 9 27 21 46 43 68 142 92 220 53z"/>
<path d="M8240 4540 l0 -220 25 0 25 0 0 220 0 220 -25 0 -25 0 0 -220z"/>
<path d="M12580 4612 c0 -81 4 -163 10 -181 40 -142 268 -162 344 -31 18 31
21 55 24 198 l4 162 -31 0 -31 0 0 -160 0 -160 -33 -36 c-28 -31 -42 -37 -84
-41 -41 -4 -59 -1 -86 16 -53 32 -60 59 -65 229 l-4 152 -24 0 -24 0 0 -148z"/>
<path d="M13280 4612 c0 -81 4 -163 10 -181 40 -142 268 -162 344 -31 18 31
21 55 24 198 l4 162 -31 0 -31 0 0 -160 0 -160 -33 -36 c-28 -31 -42 -37 -84
-41 -41 -4 -59 -1 -86 16 -53 32 -60 59 -65 229 l-4 152 -24 0 -24 0 0 -148z"/>
</g>
</svg>
