<?xml version="1.0" encoding="UTF-8"?>
<svg version="1.1" xmlns="http://www.w3.org/2000/svg" width="2000" height="2000">
<path d="M0 0 C0.91112549 0.00644531 1.82225098 0.01289063 2.76098633 0.01953125 C17.57773198 0.42159237 29.3845073 8.6737009 39.41015625 19.19140625 C57.52151526 40.47135292 64.69131751 64.93568459 63.375 92.5 C62.24806294 102.74385789 57.18607101 111.56488494 52.375 120.5 C51.71467773 121.73435791 51.71467773 121.73435791 51.04101562 122.99365234 C43.37687127 137.28776258 35.40088459 151.40678459 27.375 165.5 C26.43068115 167.16023193 26.43068115 167.16023193 25.46728516 168.85400391 C16.81029304 184.0714369 8.07411407 199.24041299 -0.77832031 214.34521484 C-2.401497 217.11817746 -4.02079068 219.89336533 -5.63822937 222.66967773 C-14.74392873 238.29690584 -24.00282105 253.82132233 -33.42848206 269.25759888 C-35.94379973 273.37813034 -38.44742188 277.5056028 -40.9453125 281.63671875 C-51.39841553 298.91831348 -62.04242823 316.0735314 -72.82421875 333.15234375 C-73.51241699 334.24579102 -74.20061523 335.33923828 -74.90966797 336.46582031 C-76.22936186 338.56245896 -77.55243069 340.65697836 -78.87939453 342.74902344 C-79.47220215 343.69165039 -80.06500977 344.63427734 -80.67578125 345.60546875 C-81.45949097 346.84526489 -81.45949097 346.84526489 -82.2590332 348.11010742 C-85.73294718 354.18805987 -85.63104696 357.61376768 -84.20654297 364.31103516 C-84.03082386 365.19345855 -83.85510475 366.07588194 -83.67406082 366.98504543 C-83.08547692 369.92267004 -82.47641052 372.85565453 -81.8671875 375.7890625 C-81.44691135 377.86444974 -81.0278992 379.9400933 -80.6100769 382.01597595 C-79.71877441 386.43022112 -78.81844803 390.84249222 -77.91101074 395.25344849 C-76.49808878 402.12274155 -75.10755283 408.99644972 -73.71972656 415.87084961 C-69.90277217 434.74777254 -66.0418124 453.61516154 -62.06593704 472.45928955 C-61.62522992 474.5516603 -61.18679432 476.64449179 -60.74935913 478.73754883 C-60.54214831 479.72891783 -60.54214831 479.72891783 -60.33075142 480.74031448 C-60.19598333 481.3853027 -60.06121525 482.03029091 -59.92236328 482.69482422 C-58.93023747 487.44253026 -57.91311237 492.18377405 -56.87841797 496.92236328 C-51.62191057 521.55952344 -52.24546119 542.4637756 -65.625 564.5 C-80.58834128 587.16771652 -100.55779061 598.35790142 -126.7342186 603.81877899 C-130.41948513 604.56826582 -134.10985834 605.29070625 -137.80078125 606.01171875 C-139.45974802 606.33990624 -141.1186094 606.66862683 -142.77737427 606.99783325 C-146.31585264 607.69939772 -149.85483288 608.39834389 -153.39425659 609.09512329 C-162.93989195 610.97491158 -172.48180809 612.87343635 -182.0234375 614.7734375 C-183.00281973 614.96833834 -183.98220196 615.16323917 -184.99126244 615.3640461 C-204.32372506 619.21378227 -223.62499647 623.20655143 -242.92016602 627.23843384 C-295.97920151 638.32409364 -349.09611146 648.90045442 -402.625 657.5 C-403.52107971 657.64522095 -404.41715942 657.79044189 -405.34039307 657.94006348 C-457.9525846 666.46129885 -457.9525846 666.46129885 -474.8125 655.1875 C-476.43108886 653.97738782 -478.03608167 652.74881541 -479.625 651.5 C-480.31335938 650.97664063 -481.00171875 650.45328125 -481.7109375 649.9140625 C-498.20574112 636.54870779 -508.0025838 615.00561608 -511.625 594.5 C-512.03100135 589.98920079 -512.09115111 585.52687489 -512.0625 581 C-512.08248047 579.87980469 -512.10246094 578.75960937 -512.12304688 577.60546875 C-512.11510123 563.82772176 -507.28120838 552.99888882 -500.6875 541.125 C-500.01536372 539.89563623 -499.34407382 538.66580938 -498.67358398 537.43554688 C-496.67547092 533.78022849 -494.65350998 530.13851669 -492.625 526.5 C-492.06039062 525.48518555 -491.49578125 524.47037109 -490.9140625 523.42480469 C-487.19414115 516.75843344 -483.41492739 510.12674433 -479.625 503.5 C-478.3447888 501.2540563 -477.06485211 499.00795612 -475.78515625 496.76171875 C-463.17616922 474.64051283 -450.50632995 452.55527057 -437.50195312 430.66357422 C-435.74748873 427.70645278 -433.99713045 424.74695024 -432.24806213 421.78663635 C-423.86750888 407.60449737 -415.44345484 393.46090082 -406.72265625 379.484375 C-403.35278036 374.07967452 -400.05176084 368.63398261 -396.75 363.1875 C-391.86110776 355.13605012 -386.92356587 347.11664357 -381.9375 339.125 C-381.31633301 338.1242041 -380.69516602 337.1234082 -380.05517578 336.09228516 C-377.19286307 331.50275388 -374.29102284 326.96614352 -371.19921875 322.52734375 C-370.67739014 321.76663574 -370.15556152 321.00592773 -369.61791992 320.22216797 C-368.6611026 318.83802961 -367.68489037 317.46698295 -366.68481445 316.11376953 C-362.64490892 310.23712252 -363.89650286 305.6931831 -365.06880379 298.9454937 C-365.59619721 296.11333408 -366.1551598 293.28894412 -366.72290039 290.46459961 C-367.0403421 288.86188454 -367.0403421 288.86188454 -367.36419678 287.22679138 C-368.06342086 283.7012504 -368.76800819 280.17680429 -369.47265625 276.65234375 C-369.96805092 274.16034765 -370.46311614 271.66828603 -370.95787048 269.17616272 C-372.13193416 263.26658645 -373.30938993 257.35769587 -374.48848385 251.44912201 C-375.66962462 245.52938625 -376.84718941 239.60894403 -378.02407265 233.68836021 C-378.79212817 229.82460079 -379.56071833 225.96094805 -380.32943726 222.09732056 C-381.33800454 217.02817424 -382.34532217 211.95878165 -383.35195923 206.88925171 C-385.58218883 195.66957327 -387.83087787 184.45487086 -390.15576172 173.25439453 C-390.71926964 170.51865253 -391.28193035 167.78273783 -391.84426689 165.04675484 C-392.35024728 162.60452644 -392.86883845 160.16522586 -393.38819885 157.72581482 C-397.7574167 136.74084509 -394.91841589 117.11556056 -383.4140625 98.8828125 C-381.27959184 95.65612721 -378.9829121 92.56740997 -376.625 89.5 C-376.08488281 88.77554688 -375.54476562 88.05109375 -374.98828125 87.3046875 C-364.23826151 73.92808863 -348.85099997 64.99481938 -332.19677734 61.52368164 C-331.41499807 61.3555021 -330.6332188 61.18732256 -329.82774925 61.01404667 C-327.42851476 60.50094958 -325.02729927 59.99853388 -322.625 59.5 C-321.5622221 59.27856386 -321.5622221 59.27856386 -320.47797394 59.05265427 C-316.31028437 58.18766777 -312.13873891 57.34280527 -307.96511459 56.50696564 C-305.61417375 56.03608279 -303.26372396 55.5628068 -300.9133606 55.08905029 C-297.48533084 54.39826859 -294.05713375 53.7083272 -290.62878418 53.01913452 C-281.26975846 51.13746998 -271.91182304 49.25041597 -262.5546875 47.359375 C-261.58087631 47.16258337 -260.60706512 46.96579174 -259.60374451 46.76303673 C-244.68728502 43.74660502 -229.78184789 40.67940992 -214.8828125 37.578125 C-213.90821516 37.37531292 -212.93361782 37.17250084 -211.92948723 36.96354294 C-209.96422451 36.55457465 -207.99896464 36.14559271 -206.03370762 35.73659706 C-205.06311877 35.5346089 -204.09252993 35.33262074 -203.0925293 35.12451172 C-202.12419883 34.92299185 -201.15586836 34.72147198 -200.15819454 34.51384544 C-33.01719496 -0.26025969 -33.01719496 -0.26025969 0 0 Z " fill="#22C55E" transform="translate(1224.625,445.5)"/>
<path d="M0 0 C15.94521201 15.10756485 24.08639723 43.24034737 29.52636719 63.90673828 C30.17836913 66.33083339 30.86714679 68.74310878 31.55859375 71.15625 C41.79752476 106.99400676 50.33663909 143.19272476 58.14941406 179.62548828 C59.4121013 185.51345726 60.6821841 191.39980862 61.95703125 197.28515625 C62.24320313 198.61522705 62.24320313 198.61522705 62.53515625 199.97216797 C62.71304687 200.79346191 62.8909375 201.61475586 63.07421875 202.4609375 C63.24018555 203.22873535 63.40615234 203.9965332 63.57714844 204.78759766 C64.06183786 206.88526223 64.63319746 208.94319178 65.21484375 211.015625 C66.6812407 216.98964091 67.23240315 222.43613754 64.203125 227.98046875 C63.32953327 229.36628763 62.43354381 230.73815725 61.51953125 232.09765625 C60.79056641 233.23448853 60.79056641 233.23448853 60.046875 234.39428711 C58.41139944 236.93361846 56.74699258 239.45257601 55.08203125 241.97265625 C53.85247357 243.86608911 52.62465944 245.76065515 51.3984375 247.65625 C48.96090782 251.41665543 46.51221765 255.16926681 44.05078125 258.9140625 C40.97122062 263.60299351 37.9217265 268.3106448 34.87890625 273.0234375 C29.44140313 281.44021614 23.94034934 289.81429567 18.42523193 298.18035889 C15.68101602 302.34404396 12.94027508 306.51001575 10.19921875 310.67578125 C9.66382477 311.48941132 9.12843079 312.30304138 8.57681274 313.1413269 C7.54803662 314.70478815 6.51929765 316.26827385 5.49060059 317.83178711 C4.60892069 319.17184275 3.72717652 320.5118561 2.84533691 321.85180664 C-4.42572485 332.90180887 -11.60120153 344.00130841 -18.60546875 355.22265625 C-19.2305835 356.22184082 -19.85569824 357.22102539 -20.49975586 358.25048828 C-23.4068557 362.90659056 -26.28754653 367.5744943 -29.10546875 372.28515625 C-41.24900291 392.40582374 -56.83853741 406.5839476 -80.2578125 412.4140625 C-84.49176411 413.30313017 -88.59681637 413.7754493 -92.91796875 413.97265625 C-94.19800781 414.03710938 -95.47804688 414.1015625 -96.796875 414.16796875 C-113.52352055 414.74388619 -128.23868582 410.6844731 -141.23046875 399.72265625 C-151.0839859 390.3184347 -155.60547894 377.25918598 -160.91796875 364.97265625 C-161.2123584 364.30572754 -161.50674805 363.63879883 -161.81005859 362.95166016 C-166.42389499 352.46516087 -169.3396395 341.68925967 -172.21972656 330.62841797 C-173.22249753 326.8143821 -174.28797389 323.01897037 -175.35546875 319.22265625 C-176.21332871 316.14034143 -177.06631321 313.05669068 -177.91796875 309.97265625 C-178.30637939 308.56669189 -178.30637939 308.56669189 -178.70263672 307.13232422 C-186.21848254 279.82869984 -192.57128201 252.32283435 -198.48432922 224.63713074 C-200.26943189 216.29755133 -202.13094951 207.97529669 -204.01586914 199.65771484 C-204.66589421 196.76584328 -205.29931729 193.87139429 -205.91796875 190.97265625 C-206.12969727 189.98168945 -206.34142578 188.99072266 -206.55957031 187.96972656 C-206.75260742 187.00389648 -206.94564453 186.03806641 -207.14453125 185.04296875 C-207.31807129 184.18719238 -207.49161133 183.33141602 -207.67041016 182.44970703 C-208.10781964 178.073024 -207.12304843 174.85771102 -204.7578125 171.20703125 C-204.30253174 170.49538818 -203.84725098 169.78374512 -203.37817383 169.05053711 C-202.87568115 168.28233643 -202.37318848 167.51413574 -201.85546875 166.72265625 C-201.06015747 165.4862439 -201.06015747 165.4862439 -200.2487793 164.22485352 C-199.08972986 162.4235357 -197.92756303 160.62422091 -196.76269531 158.82666016 C-194.8827869 155.91822589 -193.01931328 152.99986252 -191.16015625 150.078125 C-179.26523904 131.3944525 -167.14042841 112.86372511 -154.921875 94.390625 C-142.35613006 75.38612837 -129.8645879 56.37382246 -117.91796875 36.97265625 C-103.08217888 12.8899836 -89.19043074 -4.92174473 -60.55859375 -12.265625 C-39.19182879 -16.73613913 -17.30336624 -14.27300438 0 0 Z " fill="#059722" transform="translate(1070.91796875,577.02734375)"/>
<path d="M0 0 C1.12664062 -0.03287109 2.25328125 -0.06574219 3.4140625 -0.09960938 C4.49171875 -0.10669922 5.569375 -0.11378906 6.6796875 -0.12109375 C7.65405762 -0.13454834 8.62842773 -0.14800293 9.63232422 -0.16186523 C12.125 0.4375 12.125 0.4375 13.94042969 2.39233398 C15.5639879 6.56600291 15.55497419 10.27683535 15.5234375 14.71875 C15.52630768 15.60985474 15.52917786 16.50095947 15.53213501 17.41906738 C15.53417162 19.29842771 15.52866998 21.17780943 15.51611328 23.05712891 C15.50005375 25.92789266 15.51597549 28.7972486 15.53515625 31.66796875 C15.53317375 33.49739893 15.52932992 35.32682824 15.5234375 37.15625 C15.52951019 38.01158325 15.53558289 38.8669165 15.5418396 39.74816895 C15.48706998 44.406678 15.28339604 47.73295316 12.125 51.4375 C8.8671875 52.22265625 8.8671875 52.22265625 5 52.5 C-2.88601822 53.27603032 -9.4320465 54.6195465 -15.1875 60.375 C-22.87748097 70.82867969 -22.66458128 84.35586368 -23.125 96.75 C-23.2015729 98.47337695 -23.2796878 100.19668611 -23.359375 101.91992188 C-23.55184206 106.09204634 -23.71274331 110.26366011 -23.875 114.4375 C-13.315 114.4375 -2.755 114.4375 8.125 114.4375 C8.125 109.8175 8.125 105.1975 8.125 100.4375 C10.3715909 84.01669415 18.0540185 68.6287479 30.9921875 58.10546875 C41.17105808 50.60197369 51.45878121 46.02077735 64.125 44.4375 C64.125 67.5375 64.125 90.6375 64.125 114.4375 C72.045 114.4375 79.965 114.4375 88.125 114.4375 C91.095 114.9325 91.095 114.9325 94.125 115.4375 C94.36992188 114.45394531 94.61484375 113.47039062 94.8671875 112.45703125 C99.38096906 95.3293657 106.49810848 78.94036161 118.125 65.4375 C118.83140625 64.58285156 119.5378125 63.72820312 120.265625 62.84765625 C136.86856391 43.46760705 159.57168855 31.32565057 184.125 25.4375 C184.79289551 25.27233887 185.46079102 25.10717773 186.14892578 24.93701172 C208.39634411 19.71408054 235.95866488 20.03001957 258.125 25.4375 C258.80868652 25.5931543 259.49237305 25.74880859 260.19677734 25.90917969 C279.48163313 30.41032702 297.14850064 39.54595586 312.125 52.4375 C312.64239746 52.88174316 313.15979492 53.32598633 313.69287109 53.78369141 C336.62756558 73.97017027 349.07938576 105.78117945 351.30059814 135.81155396 C351.52661221 140.55544745 351.55389156 145.29355276 351.51611328 150.04199219 C351.50000049 152.4374275 351.51609871 154.83117679 351.53515625 157.2265625 C351.55564999 171.62750208 349.72032634 185.77612104 345.4375 199.5625 C345.06165771 200.79552856 345.06165771 200.79552856 344.67822266 202.0534668 C341.21647972 212.89837655 335.75867912 222.59795521 330.125 232.4375 C331.20769165 233.4730603 331.20769165 233.4730603 332.31225586 234.52954102 C334.9981417 237.10644194 337.66380457 239.70346703 340.32397461 242.30688477 C341.47582189 243.42864588 342.63300845 244.5449525 343.7956543 245.65551758 C345.47073185 247.25742258 347.12531792 248.87827876 348.77734375 250.50390625 C349.55705788 251.23716881 349.55705788 251.23716881 350.3525238 251.98524475 C352.97360147 254.60384994 354.13394038 256.46932637 355.14282227 260.06079102 C355.12286886 263.84127849 354.79603772 264.77491639 352.1875 267.3984375 C351.5378125 268.06713867 350.888125 268.73583984 350.21875 269.42480469 C349.5278125 270.08899414 348.836875 270.75318359 348.125 271.4375 C347.4753125 272.07848633 346.825625 272.71947266 346.15625 273.37988281 C344.17198879 275.30410437 342.1556905 277.18741797 340.125 279.0625 C339.45210937 279.6915625 338.77921875 280.320625 338.0859375 280.96875 C326.34773188 291.89117299 326.34773188 291.89117299 322.1875 293.75 C313.53882876 292.86748253 305.21918541 280.44952666 299.57226562 274.40625 C298.81236328 273.6225 298.05246094 272.83875 297.26953125 272.03125 C296.25403198 270.95907227 296.25403198 270.95907227 295.21801758 269.86523438 C293.19581233 268.16788726 293.19581233 268.16788726 290.5871582 268.62207031 C287.13103661 269.76668569 283.8287191 271.22337286 280.5 272.6875 C274.23019886 275.35113652 267.96413567 277.51876313 261.375 279.25 C260.27937744 279.54148926 260.27937744 279.54148926 259.16162109 279.83886719 C246.61918589 282.99458049 234.36474186 283.81561253 221.5 283.75 C220.70275513 283.74718018 219.90551025 283.74436035 219.08410645 283.74145508 C187.13635231 283.57166506 155.15069886 275.78613946 131.125 253.4375 C130.64369629 252.99712402 130.16239258 252.55674805 129.66650391 252.10302734 C102.92571299 227.43835815 93.06909956 194.76669468 90.125 159.4375 C81.545 159.4375 72.965 159.4375 64.125 159.4375 C64.14856567 164.73035034 64.14856567 164.73035034 64.17260742 170.13012695 C64.22224493 181.76898143 64.25557826 193.40785073 64.28043652 205.04678059 C64.2959132 212.10570478 64.31701788 219.16452878 64.35131836 226.22338867 C64.38438446 233.03145997 64.40183734 239.83942695 64.40963173 246.64757347 C64.41518864 249.24919463 64.42603941 251.85080989 64.44219017 254.45238686 C64.46386492 258.08728129 64.46697105 261.72174114 64.46557617 265.35668945 C64.476362 266.43994003 64.48714783 267.52319061 64.4982605 268.63926697 C64.49413651 269.62784698 64.49001251 270.616427 64.48576355 271.63496399 C64.48852893 272.49499684 64.49129431 273.3550297 64.49414349 274.24112415 C64.0424187 276.92885249 63.27531973 277.81064158 61.125 279.4375 C58.88623047 279.81845093 58.88623047 279.81845093 56.2421875 279.82568359 C55.25105957 279.83514008 54.25993164 279.84459656 53.23876953 279.8543396 C52.16997559 279.84826691 51.10118164 279.84219421 50 279.8359375 C48.90155762 279.83880768 47.80311523 279.84167786 46.67138672 279.84463501 C44.34797653 279.84667736 42.02454922 279.84113563 39.70117188 279.82861328 C36.13893288 279.81256278 32.57782858 279.82845698 29.015625 279.84765625 C26.76041415 279.84567385 24.50520402 279.84183024 22.25 279.8359375 C21.18120605 279.84201019 20.11241211 279.84808289 19.01123047 279.8543396 C18.02010254 279.84488312 17.02897461 279.83542664 16.0078125 279.82568359 C15.13527832 279.82329681 14.26274414 279.82091003 13.36376953 279.81845093 C10.5721973 279.34343462 9.84981189 278.65347962 8.125 276.4375 C7.75585651 274.24112415 7.75585651 274.24112415 7.76423645 271.63496399 C7.76011246 270.64638397 7.75598846 269.65780396 7.7517395 268.63926697 C7.76252533 267.55601639 7.77331116 266.47276581 7.78442383 265.35668945 C7.78376671 263.6442807 7.78376671 263.6442807 7.78309631 261.89727783 C7.78519029 258.11493975 7.80855073 254.33304212 7.83203125 250.55078125 C7.83762502 247.93190249 7.84189615 245.31302059 7.84489441 242.69413757 C7.85422151 236.4999086 7.87884416 230.30583832 7.90894288 224.11167926 C7.94246629 217.05977111 7.95896769 210.00785542 7.97402918 202.95588744 C8.00539325 188.44966476 8.06041356 173.94361391 8.125 159.4375 C-2.435 159.4375 -12.995 159.4375 -23.875 159.4375 C-23.85928955 162.96606689 -23.8435791 166.49463379 -23.82739258 170.13012695 C-23.77775507 181.76898143 -23.74442174 193.40785073 -23.71956348 205.04678059 C-23.7040868 212.10570478 -23.68298212 219.16452878 -23.64868164 226.22338867 C-23.61561554 233.03145997 -23.59816266 239.83942695 -23.59036827 246.64757347 C-23.58481136 249.24919463 -23.57396059 251.85080989 -23.55780983 254.45238686 C-23.53613508 258.08728129 -23.53302895 261.72174114 -23.53442383 265.35668945 C-23.523638 266.43994003 -23.51285217 267.52319061 -23.5017395 268.63926697 C-23.50586349 269.62784698 -23.50998749 270.616427 -23.51423645 271.63496399 C-23.51147107 272.49499684 -23.50870569 273.3550297 -23.50585651 274.24112415 C-23.9575813 276.92885249 -24.72468027 277.81064158 -26.875 279.4375 C-29.11376953 279.81845093 -29.11376953 279.81845093 -31.7578125 279.82568359 C-32.74894043 279.83514008 -33.74006836 279.84459656 -34.76123047 279.8543396 C-35.83002441 279.84826691 -36.89881836 279.84219421 -38 279.8359375 C-39.09844238 279.83880768 -40.19688477 279.84167786 -41.32861328 279.84463501 C-43.65202347 279.84667736 -45.97545078 279.84113563 -48.29882812 279.82861328 C-51.86106712 279.81256278 -55.42217142 279.82845698 -58.984375 279.84765625 C-61.23958585 279.84567385 -63.49479598 279.84183024 -65.75 279.8359375 C-66.81879395 279.84201019 -67.88758789 279.84808289 -68.98876953 279.8543396 C-69.97989746 279.84488312 -70.97102539 279.83542664 -71.9921875 279.82568359 C-72.86472168 279.82329681 -73.73725586 279.82091003 -74.63623047 279.81845093 C-77.4278027 279.34343462 -78.15018811 278.65347962 -79.875 276.4375 C-80.24414349 274.24112415 -80.24414349 274.24112415 -80.23576355 271.63496399 C-80.23988754 270.64638397 -80.24401154 269.65780396 -80.2482605 268.63926697 C-80.23747467 267.55601639 -80.22668884 266.47276581 -80.21557617 265.35668945 C-80.21623329 263.6442807 -80.21623329 263.6442807 -80.21690369 261.89727783 C-80.21480971 258.11493975 -80.19144927 254.33304212 -80.16796875 250.55078125 C-80.16237498 247.93190249 -80.15810385 245.31302059 -80.15510559 242.69413757 C-80.14577849 236.4999086 -80.12115584 230.30583832 -80.09105712 224.11167926 C-80.05753371 217.05977111 -80.04103231 210.00785542 -80.02597082 202.95588744 C-79.99460677 188.4496764 -79.94183341 173.94359042 -79.875 159.4375 C-80.64166992 159.44797363 -81.40833984 159.45844727 -82.19824219 159.46923828 C-85.67379474 159.51082699 -89.14929491 159.53683551 -92.625 159.5625 C-93.8315625 159.57925781 -95.038125 159.59601563 -96.28125 159.61328125 C-97.44140625 159.61972656 -98.6015625 159.62617187 -99.796875 159.6328125 C-100.86518555 159.64328613 -101.93349609 159.65375977 -103.03417969 159.66455078 C-105.88475926 159.43672 -107.50577675 159.00437748 -109.875 157.4375 C-111.47371569 154.24006861 -111.05921681 150.76690884 -111.078125 147.25390625 C-111.08382507 146.4425975 -111.08952515 145.63128876 -111.09539795 144.7953949 C-111.10484986 143.07804673 -111.11138269 141.36068041 -111.11523438 139.64331055 C-111.12494887 137.01383951 -111.15597318 134.38514717 -111.1875 131.75585938 C-111.19402918 130.08854632 -111.19927998 128.42122766 -111.203125 126.75390625 C-111.2154718 125.96633438 -111.2278186 125.17876251 -111.24053955 124.36732483 C-111.21846031 118.96661631 -111.21846031 118.96661631 -109.60449219 116.48022461 C-105.92982089 114.26473603 -102.45211358 114.31740897 -98.234375 114.33984375 C-96.62949219 114.34467773 -96.62949219 114.34467773 -94.9921875 114.34960938 C-93.88101563 114.35798828 -92.76984375 114.36636719 -91.625 114.375 C-89.93503906 114.38176758 -89.93503906 114.38176758 -88.2109375 114.38867188 C-85.43223783 114.40044603 -82.65364591 114.4168916 -79.875 114.4375 C-79.89071045 113.41092285 -79.9064209 112.3843457 -79.92260742 111.32666016 C-79.97796453 107.4239118 -80.01172363 103.52119589 -80.03979492 99.61816406 C-80.05464586 97.94655475 -80.07493202 96.27498264 -80.10131836 94.60351562 C-80.4913522 69.21307716 -76.10004296 43.75778397 -58.04638672 24.64892578 C-41.94758203 8.05913755 -23.11781123 0.12153055 0 0 Z M165.125 97.4375 C150.15572847 116.14908941 145.46830915 139.35012342 147.40625 162.84765625 C149.71003805 182.49631014 156.96419857 199.42815099 171.125 213.4375 C171.71410156 214.06011719 172.30320312 214.68273438 172.91015625 215.32421875 C185.85762147 227.98712429 205.16796464 232.66388761 222.70263672 232.69067383 C232.2631852 232.553907 241.65127666 231.03494564 250.125 226.4375 C244.87037772 218.86154715 238.51046 212.58431284 231.98046875 206.1328125 C230.80265443 204.96127937 229.62536095 203.78922239 228.44856262 202.6166687 C225.37080565 199.55212738 222.28750481 196.49323201 219.20251465 193.43597412 C214.24664425 188.52347519 209.29772478 183.60399546 204.35189247 178.68139267 C202.62532427 176.96505042 200.89539016 175.25215492 199.16508484 173.5395813 C198.11279161 172.49411219 197.06060568 171.44853507 196.00854492 170.40283203 C195.08732346 169.48986359 194.16610199 168.57689514 193.21696472 167.63626099 C191.125 165.4375 191.125 165.4375 190.125 163.4375 C190.929375 163.38142578 190.929375 163.38142578 191.75 163.32421875 C197.15186801 162.87110153 202.32064956 161.99952229 207.625 160.875 C229.12294826 156.58926014 250.07000966 160.31701647 268.4609375 172.48046875 C272.98705408 175.80537257 277.02944242 179.6057241 281.125 183.4375 C283.43914881 185.4613434 285.77999937 187.44934729 288.125 189.4375 C296.5751493 164.89336406 298.38258761 139.04208001 287.78515625 114.80078125 C278.82211325 96.6427106 265.90306796 84.87189754 247.125 77.4375 C218.16583603 67.83426756 186.04834377 74.83172361 165.125 97.4375 Z " fill="#059723" transform="translate(914.875,1190.5625)"/>
<path d="M0 0 C1.12664062 -0.03287109 2.25328125 -0.06574219 3.4140625 -0.09960938 C4.49171875 -0.10669922 5.569375 -0.11378906 6.6796875 -0.12109375 C7.65405762 -0.13454834 8.62842773 -0.14800293 9.63232422 -0.16186523 C12.125 0.4375 12.125 0.4375 13.94042969 2.39233398 C15.5639879 6.56600291 15.55497419 10.27683535 15.5234375 14.71875 C15.52630768 15.60985474 15.52917786 16.50095947 15.53213501 17.41906738 C15.53417162 19.29842771 15.52866998 21.17780943 15.51611328 23.05712891 C15.50005375 25.92789266 15.51597549 28.7972486 15.53515625 31.66796875 C15.53317375 33.49739893 15.52932992 35.32682824 15.5234375 37.15625 C15.52951019 38.01158325 15.53558289 38.8669165 15.5418396 39.74816895 C15.48706998 44.406678 15.28339604 47.73295316 12.125 51.4375 C8.8671875 52.22265625 8.8671875 52.22265625 5 52.5 C-2.88601822 53.27603032 -9.4320465 54.6195465 -15.1875 60.375 C-22.87748097 70.82867969 -22.66458128 84.35586368 -23.125 96.75 C-23.2015729 98.47337695 -23.2796878 100.19668611 -23.359375 101.91992188 C-23.55184206 106.09204634 -23.71274331 110.26366011 -23.875 114.4375 C-13.315 114.4375 -2.755 114.4375 8.125 114.4375 C8.125 109.8175 8.125 105.1975 8.125 100.4375 C10.3715909 84.01669415 18.0540185 68.6287479 30.9921875 58.10546875 C41.17105808 50.60197369 51.45878121 46.02077735 64.125 44.4375 C64.125 67.5375 64.125 90.6375 64.125 114.4375 C72.045 114.4375 79.965 114.4375 88.125 114.4375 C91.095 115.4275 91.095 115.4275 94.125 116.4375 C93.98040319 118.08344243 93.83424064 119.72924731 93.6875 121.375 C93.56568359 122.74978516 93.56568359 122.74978516 93.44140625 124.15234375 C93.2721171 125.91002489 93.09708252 127.66746527 92.88427734 129.42041016 C92.01758604 136.59031092 91.77052122 143.75511221 91.51953125 150.96875 C91.46345703 152.391875 91.46345703 152.391875 91.40625 153.84375 C91.37595703 154.70291016 91.34566406 155.56207031 91.31445312 156.44726562 C91.125 158.4375 91.125 158.4375 90.125 159.4375 C88.19832493 159.52498207 86.26848139 159.54447334 84.33984375 159.53515625 C83.17001953 159.53193359 82.00019531 159.52871094 80.79492188 159.52539062 C79.56322266 159.51701172 78.33152344 159.50863281 77.0625 159.5 C75.20915039 159.49323242 75.20915039 159.49323242 73.31835938 159.48632812 C70.25385883 159.47449608 67.18945279 159.45801173 64.125 159.4375 C64.12776538 160.0377213 64.13053076 160.6379426 64.13337994 161.25635242 C64.19959902 175.85312651 64.24926069 190.44989173 64.28043652 205.04678059 C64.2959132 212.10570478 64.31701788 219.16452878 64.35131836 226.22338867 C64.38438446 233.03145997 64.40183734 239.83942695 64.40963173 246.64757347 C64.41518864 249.24919463 64.42603941 251.85080989 64.44219017 254.45238686 C64.46386492 258.08728129 64.46697105 261.72174114 64.46557617 265.35668945 C64.476362 266.43994003 64.48714783 267.52319061 64.4982605 268.63926697 C64.49413651 269.62784698 64.49001251 270.616427 64.48576355 271.63496399 C64.48852893 272.49499684 64.49129431 273.3550297 64.49414349 274.24112415 C64.0424187 276.92885249 63.27531973 277.81064158 61.125 279.4375 C58.88623047 279.81845093 58.88623047 279.81845093 56.2421875 279.82568359 C55.25105957 279.83514008 54.25993164 279.84459656 53.23876953 279.8543396 C52.16997559 279.84826691 51.10118164 279.84219421 50 279.8359375 C48.90155762 279.83880768 47.80311523 279.84167786 46.67138672 279.84463501 C44.34797653 279.84667736 42.02454922 279.84113563 39.70117188 279.82861328 C36.13893288 279.81256278 32.57782858 279.82845698 29.015625 279.84765625 C26.76041415 279.84567385 24.50520402 279.84183024 22.25 279.8359375 C21.18120605 279.84201019 20.11241211 279.84808289 19.01123047 279.8543396 C18.02010254 279.84488312 17.02897461 279.83542664 16.0078125 279.82568359 C15.13527832 279.82329681 14.26274414 279.82091003 13.36376953 279.81845093 C10.5721973 279.34343462 9.84981189 278.65347962 8.125 276.4375 C7.75585651 274.24112415 7.75585651 274.24112415 7.76423645 271.63496399 C7.76011246 270.64638397 7.75598846 269.65780396 7.7517395 268.63926697 C7.76252533 267.55601639 7.77331116 266.47276581 7.78442383 265.35668945 C7.78376671 263.6442807 7.78376671 263.6442807 7.78309631 261.89727783 C7.78519029 258.11493975 7.80855073 254.33304212 7.83203125 250.55078125 C7.83762502 247.93190249 7.84189615 245.31302059 7.84489441 242.69413757 C7.85422151 236.4999086 7.87884416 230.30583832 7.90894288 224.11167926 C7.94246629 217.05977111 7.95896769 210.00785542 7.97402918 202.95588744 C8.00539325 188.44966476 8.06041356 173.94361391 8.125 159.4375 C-2.435 159.4375 -12.995 159.4375 -23.875 159.4375 C-23.85928955 162.96606689 -23.8435791 166.49463379 -23.82739258 170.13012695 C-23.77775507 181.76898143 -23.74442174 193.40785073 -23.71956348 205.04678059 C-23.7040868 212.10570478 -23.68298212 219.16452878 -23.64868164 226.22338867 C-23.61561554 233.03145997 -23.59816266 239.83942695 -23.59036827 246.64757347 C-23.58481136 249.24919463 -23.57396059 251.85080989 -23.55780983 254.45238686 C-23.53613508 258.08728129 -23.53302895 261.72174114 -23.53442383 265.35668945 C-23.523638 266.43994003 -23.51285217 267.52319061 -23.5017395 268.63926697 C-23.50586349 269.62784698 -23.50998749 270.616427 -23.51423645 271.63496399 C-23.51147107 272.49499684 -23.50870569 273.3550297 -23.50585651 274.24112415 C-23.9575813 276.92885249 -24.72468027 277.81064158 -26.875 279.4375 C-29.11376953 279.81845093 -29.11376953 279.81845093 -31.7578125 279.82568359 C-32.74894043 279.83514008 -33.74006836 279.84459656 -34.76123047 279.8543396 C-35.83002441 279.84826691 -36.89881836 279.84219421 -38 279.8359375 C-39.09844238 279.83880768 -40.19688477 279.84167786 -41.32861328 279.84463501 C-43.65202347 279.84667736 -45.97545078 279.84113563 -48.29882812 279.82861328 C-51.86106712 279.81256278 -55.42217142 279.82845698 -58.984375 279.84765625 C-61.23958585 279.84567385 -63.49479598 279.84183024 -65.75 279.8359375 C-66.81879395 279.84201019 -67.88758789 279.84808289 -68.98876953 279.8543396 C-69.97989746 279.84488312 -70.97102539 279.83542664 -71.9921875 279.82568359 C-72.86472168 279.82329681 -73.73725586 279.82091003 -74.63623047 279.81845093 C-77.4278027 279.34343462 -78.15018811 278.65347962 -79.875 276.4375 C-80.24414349 274.24112415 -80.24414349 274.24112415 -80.23576355 271.63496399 C-80.23988754 270.64638397 -80.24401154 269.65780396 -80.2482605 268.63926697 C-80.23747467 267.55601639 -80.22668884 266.47276581 -80.21557617 265.35668945 C-80.21623329 263.6442807 -80.21623329 263.6442807 -80.21690369 261.89727783 C-80.21480971 258.11493975 -80.19144927 254.33304212 -80.16796875 250.55078125 C-80.16237498 247.93190249 -80.15810385 245.31302059 -80.15510559 242.69413757 C-80.14577849 236.4999086 -80.12115584 230.30583832 -80.09105712 224.11167926 C-80.05753371 217.05977111 -80.04103231 210.00785542 -80.02597082 202.95588744 C-79.99460677 188.4496764 -79.94183341 173.94359042 -79.875 159.4375 C-80.64166992 159.44797363 -81.40833984 159.45844727 -82.19824219 159.46923828 C-85.67379474 159.51082699 -89.14929491 159.53683551 -92.625 159.5625 C-93.8315625 159.57925781 -95.038125 159.59601563 -96.28125 159.61328125 C-97.44140625 159.61972656 -98.6015625 159.62617187 -99.796875 159.6328125 C-100.86518555 159.64328613 -101.93349609 159.65375977 -103.03417969 159.66455078 C-105.88475926 159.43672 -107.50577675 159.00437748 -109.875 157.4375 C-111.47371569 154.24006861 -111.05921681 150.76690884 -111.078125 147.25390625 C-111.08382507 146.4425975 -111.08952515 145.63128876 -111.09539795 144.7953949 C-111.10484986 143.07804673 -111.11138269 141.36068041 -111.11523438 139.64331055 C-111.12494887 137.01383951 -111.15597318 134.38514717 -111.1875 131.75585938 C-111.19402918 130.08854632 -111.19927998 128.42122766 -111.203125 126.75390625 C-111.2154718 125.96633438 -111.2278186 125.17876251 -111.24053955 124.36732483 C-111.21846031 118.96661631 -111.21846031 118.96661631 -109.60449219 116.48022461 C-105.92982089 114.26473603 -102.45211358 114.31740897 -98.234375 114.33984375 C-96.62949219 114.34467773 -96.62949219 114.34467773 -94.9921875 114.34960938 C-93.88101563 114.35798828 -92.76984375 114.36636719 -91.625 114.375 C-89.93503906 114.38176758 -89.93503906 114.38176758 -88.2109375 114.38867188 C-85.43223783 114.40044603 -82.65364591 114.4168916 -79.875 114.4375 C-79.89071045 113.41092285 -79.9064209 112.3843457 -79.92260742 111.32666016 C-79.97796453 107.4239118 -80.01172363 103.52119589 -80.03979492 99.61816406 C-80.05464586 97.94655475 -80.07493202 96.27498264 -80.10131836 94.60351562 C-80.4913522 69.21307716 -76.10004296 43.75778397 -58.04638672 24.64892578 C-41.94758203 8.05913755 -23.11781123 0.12153055 0 0 Z " fill="#F8822A" transform="translate(914.875,1190.5625)"/>
<path d="M0 0 C2.86295916 2.85820342 5.43417644 5.87744114 8 9 C8.98645782 10.01336122 9.98154325 11.01880387 11 12 C11.52207031 11.43152344 12.04414062 10.86304688 12.58203125 10.27734375 C27.62769068 -5.50610634 45.67601994 -11.29121356 66.98046875 -11.96826172 C84.83826944 -12.24890897 102.9048284 -7.87220237 116.04296875 4.8515625 C128.18323795 18.17920333 132.31654765 34.08325668 132.2746582 51.73608398 C132.2823246 53.42816734 132.2823246 53.42816734 132.29014587 55.1544342 C132.30395259 58.85170921 132.30309308 62.54879617 132.30078125 66.24609375 C132.30467054 68.82536386 132.30900569 71.40463333 132.31376648 73.98390198 C132.32120756 79.37267415 132.32109016 84.76137399 132.31567383 90.15014648 C132.30961042 96.37834328 132.32201592 102.60631552 132.3432439 108.83447403 C132.36295937 114.84022321 132.36603768 120.84585428 132.36250877 126.8516407 C132.3630231 129.40301099 132.36828159 131.95438481 132.37832069 134.5057354 C132.3906022 138.06056205 132.38394519 141.6148601 132.37231445 145.16967773 C132.37995819 146.22786713 132.38760193 147.28605652 132.39547729 148.37631226 C132.38846298 149.34202652 132.38144867 150.30774078 132.3742218 151.30271912 C132.37447341 152.5622246 132.37447341 152.5622246 132.37473011 153.84717464 C131.91280135 156.50095648 131.12080062 157.38600929 129 159 C126.76123047 159.38095093 126.76123047 159.38095093 124.1171875 159.38818359 C123.12605957 159.39764008 122.13493164 159.40709656 121.11376953 159.4168396 C120.04497559 159.41076691 118.97618164 159.40469421 117.875 159.3984375 C116.22733643 159.40274277 116.22733643 159.40274277 114.54638672 159.40713501 C112.22297653 159.40917736 109.89954922 159.40363563 107.57617188 159.39111328 C104.01393288 159.37506278 100.45282858 159.39095698 96.890625 159.41015625 C94.63541415 159.40817385 92.38020402 159.40433024 90.125 159.3984375 C89.05620605 159.40451019 87.98741211 159.41058289 86.88623047 159.4168396 C85.39953857 159.40265488 85.39953857 159.40265488 83.8828125 159.38818359 C83.01027832 159.38579681 82.13774414 159.38341003 81.23876953 159.38095093 C79 159 79 159 77.22085571 157.98228455 C75.27437909 154.82182055 75.56962468 151.49785689 75.58349609 147.89526367 C75.57491074 147.06875305 75.56632538 146.24224243 75.55747986 145.39068604 C75.5323314 142.64969445 75.52802906 139.90906542 75.5234375 137.16796875 C75.50912012 135.25522261 75.49336178 133.34248677 75.47622681 131.42976379 C75.4342848 126.37991404 75.40936662 121.33012786 75.38873291 116.28015137 C75.35301774 108.23709466 75.29130551 100.19419692 75.23024368 92.15130043 C75.21138199 89.35877616 75.19948129 86.56629353 75.18881226 83.77372742 C76.16734518 61.59387389 76.16734518 61.59387389 68.6875 41.5625 C62.77085457 35.92104738 56.37972758 34.66649159 48.46875 34.78515625 C41.21966009 35.41601059 34.98215921 37.55438412 30 43 C26.0957289 48.42682807 24.60121263 54.00989724 23.87866211 60.58642578 C23.79557517 61.32351336 23.71248823 62.06060093 23.62688351 62.82002449 C22.77578135 71.08157153 22.70389749 79.33419792 22.69503975 87.63256454 C22.69130831 90.44089767 22.67441207 93.24889843 22.65428162 96.05715942 C22.59943794 104.02616236 22.56797496 111.99520635 22.54370117 119.96435547 C22.5278632 124.87292145 22.4977187 129.78123506 22.45893669 134.68967056 C22.4472898 136.55160991 22.44135637 138.41359414 22.44125557 140.27556992 C22.44106431 142.86220784 22.42286743 145.44813943 22.40063477 148.03466797 C22.40521194 148.80133789 22.40978912 149.56800781 22.414505 150.35791016 C22.37458432 153.26749448 22.33300193 155.46124874 20.78013611 157.97357178 C18.43843185 159.32380075 16.81907269 159.3807927 14.1171875 159.38818359 C13.12605957 159.39764008 12.13493164 159.40709656 11.11376953 159.4168396 C10.04497559 159.41076691 8.97618164 159.40469421 7.875 159.3984375 C6.22733643 159.40274277 6.22733643 159.40274277 4.54638672 159.40713501 C2.22297653 159.40917736 -0.10045078 159.40363563 -2.42382812 159.39111328 C-5.98606712 159.37506278 -9.54717142 159.39095698 -13.109375 159.41015625 C-15.36458585 159.40817385 -17.61979598 159.40433024 -19.875 159.3984375 C-20.94379395 159.40451019 -22.01258789 159.41058289 -23.11376953 159.4168396 C-24.60046143 159.40265488 -24.60046143 159.40265488 -26.1171875 159.38818359 C-26.98972168 159.38579681 -27.86225586 159.38341003 -28.76123047 159.38095093 C-31.52897591 158.90998901 -32.25665276 158.15923498 -34 156 C-34.29970888 153.03561341 -34.41679676 150.2787109 -34.40063477 147.31274414 C-34.41110336 145.9803772 -34.41110336 145.9803772 -34.42178345 144.62109375 C-34.44182347 141.6756857 -34.44126031 138.73062659 -34.44140625 135.78515625 C-34.45317978 133.73309893 -34.46654395 131.68105017 -34.48143005 129.62901306 C-34.51769275 124.21341622 -34.53783028 118.79789509 -34.55297852 113.38220215 C-34.57774796 104.74624 -34.61782657 96.11044569 -34.67487907 87.47463799 C-34.69108156 84.47036106 -34.69497574 81.46624435 -34.69789124 78.46192932 C-34.43314449 56.9158899 -34.43314449 56.9158899 -44.375 38.5 C-51.18964516 34.60591705 -58.2191947 33.93610248 -65.7734375 35.6171875 C-72.70474263 37.76304361 -77.19830581 40.76397847 -81 47 C-84.82149138 55.34417385 -86.14653963 62.97686112 -86.15771484 72.05712891 C-86.16279556 72.96012222 -86.16787628 73.86311554 -86.17311096 74.79347229 C-86.18378947 76.74903019 -86.19241947 78.70460012 -86.19923019 80.66017532 C-86.21103889 83.75311896 -86.23049403 86.84592422 -86.25234985 89.93881226 C-86.31392053 98.73064605 -86.36811227 107.52246289 -86.40136719 116.31445312 C-86.42226731 121.69548136 -86.45752471 127.07625253 -86.50212479 132.45713425 C-86.51631328 134.50886392 -86.52501362 136.56063902 -86.52817917 138.61241531 C-86.53306718 141.47577261 -86.55616751 144.33844182 -86.58349609 147.20166016 C-86.58048996 148.05263779 -86.57748383 148.90361542 -86.5743866 149.78038025 C-86.65684959 155.57438811 -86.65684959 155.57438811 -88.3845768 157.71730042 C-90.60190979 159.47793633 -92.07126375 159.38049272 -94.8828125 159.38818359 C-95.87394043 159.39764008 -96.86506836 159.40709656 -97.88623047 159.4168396 C-98.95502441 159.41076691 -100.02381836 159.40469421 -101.125 159.3984375 C-102.77266357 159.40274277 -102.77266357 159.40274277 -104.45361328 159.40713501 C-106.77702347 159.40917736 -109.10045078 159.40363563 -111.42382812 159.39111328 C-114.98606712 159.37506278 -118.54717142 159.39095698 -122.109375 159.41015625 C-124.36458585 159.40817385 -126.61979598 159.40433024 -128.875 159.3984375 C-129.94379395 159.40451019 -131.01258789 159.41058289 -132.11376953 159.4168396 C-133.60046143 159.40265488 -133.60046143 159.40265488 -135.1171875 159.38818359 C-135.98972168 159.38579681 -136.86225586 159.38341003 -137.76123047 159.38095093 C-140.60646391 158.89680359 -141.29978971 158.32442456 -143 156 C-143.36914349 153.05399036 -143.36914349 153.05399036 -143.36076355 149.37519836 C-143.36460846 148.36067424 -143.36460846 148.36067424 -143.36853105 147.32565469 C-143.37348087 145.05450871 -143.35695706 142.7840244 -143.34057617 140.51293945 C-143.33973015 138.88690202 -143.34020455 137.26086343 -143.34190369 135.63482666 C-143.34276606 131.2156238 -143.32510123 126.79666416 -143.30418181 122.37751794 C-143.28545528 117.76106508 -143.28366775 113.14460693 -143.28010559 108.52812195 C-143.27077328 99.78396563 -143.24614347 91.03992154 -143.21605712 82.29581469 C-143.18254999 72.34189954 -143.16603639 62.38797908 -143.15097082 52.43402159 C-143.11959494 31.9559517 -143.06681141 11.47798291 -143 -9 C-127.36984893 -7.18527465 -112.54751407 0.20160882 -102.125 12.1875 C-100 15 -100 15 -100 17 C-99.53851562 16.5875 -99.07703125 16.175 -98.6015625 15.75 C-72.36995532 -7.47482217 -31.82365696 -25.75005682 0 0 Z " fill="#059823" transform="translate(1612,1311)"/>
<path d="M0 0 C13.64942341 12.62527773 22.47241019 29.32998836 23.87890625 48.05859375 C24.10381462 55.50012728 24.10381462 55.50012728 22.4329834 57.71621704 C20.11957585 59.509843 18.77454628 59.4738099 15.86523438 59.48193359 C14.8941272 59.49139008 13.92302002 59.50084656 12.92248535 59.5105896 C11.87556519 59.50451691 10.82864502 59.49844421 9.75 59.4921875 C8.67375366 59.49505768 7.59750732 59.49792786 6.48864746 59.50088501 C4.21231561 59.50292725 1.93596628 59.49738629 -0.34033203 59.48486328 C-3.83015073 59.46881255 -7.31881119 59.48470728 -10.80859375 59.50390625 C-13.01823173 59.50192385 -15.22786899 59.49808024 -17.4375 59.4921875 C-18.48442017 59.49826019 -19.53134033 59.50433289 -20.60998535 59.5105896 C-22.06664612 59.49640488 -22.06664612 59.49640488 -23.55273438 59.48193359 C-24.83488831 59.47835342 -24.83488831 59.47835342 -26.14294434 59.47470093 C-28.85569271 59.0051347 -29.6975407 58.26740514 -31.34375 56.09375 C-32.17554588 53.71800423 -32.90537482 51.38400764 -33.59375 48.96875 C-36.25938285 40.43749648 -39.85343479 33.91106599 -47.71875 29.15625 C-59.18965393 23.5747699 -72.9579944 23.34385876 -85.0390625 27.1796875 C-91.08919432 29.57923131 -95.60813791 33.13834218 -98.25390625 39.16796875 C-101.10899869 46.98959408 -100.99820293 53.07573287 -97.65625 60.734375 C-93.20037469 68.74434133 -83.99031013 72.29424115 -75.62036133 74.96166992 C-72.85096517 75.70579572 -70.07443209 76.38221184 -67.28125 77.03125 C-66.25829834 77.27939453 -65.23534668 77.52753906 -64.18139648 77.78320312 C-58.66707506 79.11088752 -53.13856816 80.36836732 -47.6015625 81.59765625 C-21.28284388 87.45688417 5.59551487 94.47933578 21.65625 118.09375 C23.68269412 121.32305667 25.24677945 124.55251794 26.65625 128.09375 C27.04941406 129.06570313 27.44257813 130.03765625 27.84765625 131.0390625 C34.77572894 151.84742019 32.36311765 176.71912168 23.09375 196.34375 C13.56192649 215.02341361 -4.09044299 227.08391777 -23.65625 233.56640625 C-56.93604915 244.03278043 -93.9568923 242.26852783 -125.31640625 226.609375 C-142.72152839 217.17692171 -155.91762765 201.83358741 -162.03271484 182.96826172 C-164.692163 173.92695564 -166.59424178 164.54514133 -165.34375 155.09375 C-163.34375 152.09375 -163.34375 152.09375 -160.34375 151.09375 C-158.75993749 150.98231412 -157.17201836 150.92493406 -155.58447266 150.90087891 C-154.61982086 150.88481598 -153.65516907 150.86875305 -152.6612854 150.85220337 C-148.25987521 150.80769219 -143.85861378 150.76670707 -139.45703125 150.74365234 C-137.13498932 150.72707562 -134.81299876 150.69976335 -132.49121094 150.66162109 C-129.14230905 150.60690047 -125.79460101 150.58498706 -122.4453125 150.5703125 C-121.4087149 150.54764313 -120.37211731 150.52497375 -119.30410767 150.50161743 C-112.10251315 150.52275619 -112.10251315 150.52275619 -108.21044922 153.45166016 C-106.17069073 156.33869474 -105.46653118 158.38181931 -104.84375 161.84375 C-102.63131857 171.86114787 -97.86336529 179.92844023 -89.09375 185.53125 C-75.66219521 192.76362566 -59.82485426 194.58023046 -45.15625 190.34375 C-38.40192529 187.94352239 -33.33290914 185.28382453 -29.34375 179.09375 C-25.25485983 169.93323211 -25.70388799 162.95940336 -29.078125 153.70703125 C-33.30645242 144.97631816 -41.47787394 140.71721003 -50.3125 137.62890625 C-59.950248 134.52833632 -69.81259669 132.22648857 -79.640625 129.82324219 C-134.78343283 116.3292262 -134.78343283 116.3292262 -149.34375 93.09375 C-156.05375438 81.8017712 -157.89387611 70.34402075 -157.78125 57.34375 C-157.77367676 56.11527344 -157.76610352 54.88679688 -157.75830078 53.62109375 C-157.43148022 35.54815521 -152.48925046 19.84245652 -140.34375 6.09375 C-139.63734375 5.28164062 -138.9309375 4.46953125 -138.203125 3.6328125 C-128.38494321 -6.93311161 -115.98840861 -13.52541418 -102.34375 -17.90625 C-101.45171875 -18.20144531 -100.5596875 -18.49664063 -99.640625 -18.80078125 C-66.91997954 -28.28976843 -25.94541188 -22.97002061 0 0 Z " fill="#F9822B" transform="translate(422.34375,1234.90625)"/>
<path d="M0 0 C0.9887915 0.00620361 1.97758301 0.01240723 2.99633789 0.01879883 C3.74906982 0.0267749 4.50180176 0.03475098 5.27734375 0.04296875 C19.91261709 31.42048162 33.55923292 63.25665223 47.27734375 95.04296875 C48.11533098 92.58614255 48.94840393 90.1278542 49.77734375 87.66796875 C50.04434082 86.87720947 50.31133789 86.0864502 50.58642578 85.27172852 C52.20502408 80.42379088 53.73322834 75.55960643 55.17578125 70.65625 C60.47577213 52.67834233 65.96243273 36.46644377 78.27734375 22.04296875 C78.85097656 21.36878906 79.42460938 20.69460938 80.015625 20 C90.76125221 8.38241258 107.65509127 0.82702914 123.36425781 -0.07714844 C127.67376812 -0.19713024 131.96891949 -0.11995486 136.27734375 0.04296875 C134.71042544 7.90881392 132.32701366 15.42504721 129.83203125 23.0390625 C129.38498564 24.41397634 128.93834018 25.78902033 128.49206543 27.16418457 C127.54314541 30.08579095 126.59177072 33.00658113 125.6383667 35.92672729 C124.13703692 40.52539208 122.64133054 45.12587221 121.14697266 49.72680664 C120.89751074 50.49484588 120.64804882 51.26288511 120.39102745 52.05419827 C119.88669734 53.6069775 119.38238863 55.15976369 118.87810135 56.71255684 C118.12014983 59.04587457 117.36168139 61.37902377 116.6031189 63.71214294 C112.57474107 76.10568879 108.58859017 88.51234356 104.62713623 100.92745972 C103.66029726 103.95555868 102.69114927 106.98290853 101.72119141 110.01000977 C99.00539041 118.48801636 96.29621768 126.96768691 93.62942505 135.46125793 C92.52710952 138.96609867 91.4155119 142.46795121 90.30206299 145.9692688 C89.79326881 147.577444 89.28885353 149.18701245 88.78924561 150.79806519 C88.11407333 152.97453327 87.42410933 155.14576652 86.73046875 157.31640625 C86.16054199 159.13277588 86.16054199 159.13277588 85.57910156 160.98583984 C83.42407369 166.04684115 83.42407369 166.04684115 80.27734375 168.04296875 C76.5491044 168.64570967 72.85995061 168.62700755 69.08984375 168.609375 C67.99518799 168.61557358 66.90053223 168.62177216 65.77270508 168.62815857 C63.45948171 168.63525909 61.14620725 168.63207876 58.83300781 168.61938477 C55.29006128 168.60551852 51.74975469 168.6395903 48.20703125 168.67773438 C45.95963477 168.67868554 43.71223498 168.67682689 41.46484375 168.671875 C40.40434814 168.68513321 39.34385254 168.69839142 38.2512207 168.71205139 C30.95057257 168.61942379 30.95057257 168.61942379 27.76538086 165.89208984 C26.19696935 162.88907716 24.66283049 159.92302206 23.28125 156.828125 C22.87680412 155.92945709 22.87680412 155.92945709 22.46418762 155.01263428 C21.5820079 153.04679293 20.7107093 151.07634535 19.83984375 149.10546875 C19.2193441 147.71489534 18.59840574 146.32451761 17.97705078 144.93432617 C10.43339945 128.01782985 3.10017011 111.00900402 -4.16796875 93.97265625 C-4.72835032 92.6603993 -5.28873439 91.34814343 -5.84912109 90.03588867 C-6.91258841 87.54521132 -7.97215533 85.05298856 -9.02978516 82.55981445 C-9.50077637 81.45468506 -9.97176758 80.34955566 -10.45703125 79.2109375 C-10.87178711 78.23406982 -11.28654297 77.25720215 -11.71386719 76.25073242 C-12.53455142 74.11464839 -12.53455142 74.11464839 -13.72265625 73.04296875 C-16.78551627 80.08447886 -19.84796049 87.12616975 -22.91015625 94.16796875 C-23.36506439 95.21406311 -23.81997253 96.26015747 -24.28866577 97.33795166 C-29.34076265 108.95626839 -34.39172339 120.57505817 -39.42529297 132.20141602 C-40.48233246 134.64283599 -41.54160637 137.08324593 -42.60205078 139.52319336 C-44.73882269 144.44143462 -46.86487612 149.36193059 -48.92578125 154.3125 C-49.24764404 155.07643066 -49.56950684 155.84036133 -49.90112305 156.62744141 C-50.69513868 158.51632588 -51.47724479 160.41020619 -52.2578125 162.3046875 C-53.83953371 165.26145169 -54.8946422 166.3165178 -57.72265625 168.04296875 C-60.07495117 168.43737793 -60.07495117 168.43737793 -62.703125 168.46289062 C-63.69094971 168.47880249 -64.67877441 168.49471436 -65.6965332 168.5111084 C-67.28727661 168.51141052 -67.28727661 168.51141052 -68.91015625 168.51171875 C-70.00481201 168.51933228 -71.09946777 168.5269458 -72.22729492 168.53479004 C-74.54050414 168.54559018 -76.85376213 168.54844451 -79.16699219 168.54394531 C-82.70980851 168.54297228 -86.25046476 168.58461265 -89.79296875 168.62890625 C-92.04036006 168.63411262 -94.28775891 168.63680145 -96.53515625 168.63671875 C-97.59565186 168.65311401 -98.65614746 168.66950928 -99.7487793 168.68640137 C-106.94922503 168.61857236 -106.94922503 168.61857236 -110.17285156 166.21948242 C-112.48127859 161.48807977 -114.11570647 156.63779181 -115.70703125 151.625 C-116.07962067 150.48059952 -116.45221008 149.33619904 -116.83609009 148.15711975 C-117.84783242 145.04211469 -118.84994926 141.92421584 -119.84770966 138.80471039 C-120.89941571 135.52438331 -121.96343648 132.2480533 -123.02587891 128.97119141 C-125.40328533 121.62999104 -127.76210278 114.28289447 -130.11650085 106.93428802 C-131.0651792 103.97423248 -132.01558602 101.01473214 -132.96582031 98.05517578 C-135.66833164 89.63437439 -138.36968045 81.21324783 -141.04785156 72.78466797 C-144.1731242 62.95525173 -147.33813332 53.14258261 -150.60546875 43.359375 C-151.22236622 41.50218173 -151.8390698 39.64492404 -152.45556641 37.78759766 C-153.59460806 34.35646523 -154.75002968 30.93149884 -155.91552734 27.50927734 C-156.42484527 25.9777689 -156.9335106 24.44604321 -157.44140625 22.9140625 C-157.67489777 22.24452042 -157.90838928 21.57497833 -158.1489563 20.88514709 C-159.73634919 16.02462996 -160.46784938 11.14776457 -159.72265625 6.04296875 C-157.20690238 3.52721488 -156.35846835 3.78227596 -152.87744141 3.75244141 C-151.86944489 3.7396817 -150.86144836 3.726922 -149.82290649 3.71377563 C-148.73021454 3.71154999 -147.63752258 3.70932434 -146.51171875 3.70703125 C-145.39203705 3.70037445 -144.27235535 3.69371765 -143.1187439 3.68685913 C-140.74649706 3.67671894 -138.37422161 3.67204253 -136.00195312 3.67236328 C-132.36931351 3.66799479 -128.73789284 3.6317007 -125.10546875 3.59375 C-122.80338958 3.58788128 -120.50130463 3.58391226 -118.19921875 3.58203125 C-117.11057526 3.56766022 -116.02193176 3.55328918 -114.90029907 3.53848267 C-113.88599823 3.54463593 -112.87169739 3.55078918 -111.82666016 3.55712891 C-110.93556549 3.55427887 -110.04447083 3.55142883 -109.12637329 3.54849243 C-105.89238554 4.21376639 -104.75900376 5.4851043 -102.72265625 8.04296875 C-101.69187927 10.19436646 -101.69187927 10.19436646 -100.93139648 12.56298828 C-100.63467545 13.46814178 -100.33795441 14.37329529 -100.03224182 15.30587769 C-99.56768837 16.78835495 -99.56768837 16.78835495 -99.09375 18.30078125 C-98.75508408 19.34896027 -98.41641815 20.39713928 -98.06748962 21.4770813 C-96.93719785 24.99435749 -95.82795225 28.51776171 -94.72265625 32.04296875 C-94.13330292 33.91317688 -94.13330292 33.91317688 -93.53204346 35.82116699 C-90.8019559 44.48951849 -88.10794822 53.16890806 -85.4239502 61.85162354 C-83.71793726 67.37016623 -82.00925323 72.88787674 -80.29748344 78.40463638 C-79.70600879 80.31314262 -79.1167851 82.222346 -78.52760315 84.13156128 C-78.17310593 85.27521149 -77.8186087 86.41886169 -77.45336914 87.59716797 C-76.98659508 89.10741043 -76.98659508 89.10741043 -76.51039124 90.64816284 C-75.79411441 93.02117268 -75.79411441 93.02117268 -74.72265625 95.04296875 C-74.21927734 93.88998291 -73.71589844 92.73699707 -73.19726562 91.54907227 C-71.29115307 87.18489503 -69.38184878 82.82211984 -67.47167969 78.4597168 C-66.6524776 76.58768951 -65.83408985 74.71530561 -65.01660156 72.8425293 C-60.88895541 63.38798844 -56.73735111 53.94674325 -52.375 44.59765625 C-51.90719116 43.58711937 -51.90719116 43.58711937 -51.42993164 42.5561676 C-42.72380277 24.08421294 -28.53474031 8.08030994 -9.28515625 0.73046875 C-6.03681773 0.1035964 -3.29062738 -0.02679267 0 0 Z " fill="#F9822B" transform="translate(606.72265625,1301.95703125)"/>
<path d="M0 0 C3.5313316 2.82305599 6.79602911 5.81260137 10 9 C10.68578125 9.65097656 11.3715625 10.30195312 12.078125 10.97265625 C28.23344054 27.47779161 33.42266402 51.44081111 33.3684082 73.77612305 C32.93822013 93.47873696 27.47931127 112.49622683 15 128 C14.43023438 128.74378906 13.86046875 129.48757813 13.2734375 130.25390625 C-0.84556846 147.52715823 -22.48226858 155.88723922 -44 159 C-48.55645818 159.21240729 -53.11216132 159.22806713 -57.67285156 159.24023438 C-59.83439443 159.24981993 -61.99493455 159.28083237 -64.15625 159.3125 C-89.49463923 159.50722137 -112.60823656 151.84610903 -131 134 C-131.62519531 133.44828125 -132.25039062 132.8965625 -132.89453125 132.328125 C-148.00262396 118.55009012 -154.34510605 96.4946076 -155.3515625 76.640625 C-156.0788225 49.76885922 -148.3094415 26.0520629 -129.625 6.3125 C-97.02819862 -24.96577908 -35.83709118 -25.78004188 0 0 Z M-90.3984375 41.6953125 C-98.93705519 53.98259162 -100.15359597 69.22579644 -97.75390625 83.59375 C-95.41181987 94.17561178 -90.63124753 102.95952032 -81.6875 109.375 C-72.54389333 114.93530135 -62.85730119 116.38049216 -52.33203125 114.53125 C-42.02699235 111.84714684 -34.61993795 105.97141137 -29 97 C-22.14398602 84.72344997 -21.88579171 69.38666786 -25 56 C-28.28682354 45.52401935 -33.09785602 37.06953145 -42.58984375 31.25390625 C-59.97445085 22.20940239 -78.22283712 26.96228008 -90.3984375 41.6953125 Z " fill="#059823" transform="translate(1426,1317)"/>
<path d="M0 0 C6.30307246 5.33264707 12.24438789 11.08450978 18 17 C16.62647072 20.11836333 15.08161027 22.11865428 12.5859375 24.42578125 C11.56693359 25.37420898 11.56693359 25.37420898 10.52734375 26.34179688 C9.81707031 26.99212891 9.10679688 27.64246094 8.375 28.3125 C7.34439453 29.2705957 7.34439453 29.2705957 6.29296875 30.24804688 C1.60866399 34.58520335 -3.11536674 38.88856246 -8 43 C-9.01247803 43.87265503 -9.01247803 43.87265503 -10.04541016 44.76293945 C-11.01293213 45.37528442 -11.01293213 45.37528442 -12 46 C-15.35179318 44.88273561 -16.01707405 44.04550033 -18.1875 41.375 C-24.32639576 34.19365024 -30.15483622 29.41327897 -39 26 C-39.66 25.67 -40.32 25.34 -41 25 C-48.35966019 24.3093242 -54.9752375 24.33660211 -61 29 C-64.06067559 32.36674315 -64.9083466 34.36860992 -65.5625 38.875 C-65.15108235 46.0748089 -60.04616461 51.40954927 -55.05859375 56.171875 C-51.82195932 59.04615377 -48.46527779 61.76266788 -45.09375 64.4765625 C-41.65595517 67.28062242 -38.29428992 70.16254593 -34.9375 73.0625 C-30.22493618 77.12632457 -25.44810897 81.07717495 -20.56640625 84.9375 C-15.7833536 88.78141446 -11.12171549 92.76951719 -6.45849609 96.75732422 C-5.20396765 97.82621437 -3.94069738 98.88482925 -2.67578125 99.94140625 C10.03772572 110.70667443 21.16147554 125.20680416 24 142 C24.21623271 145.93543524 24.18511884 149.8716735 24.1875 153.8125 C24.19974609 154.86759766 24.21199219 155.92269531 24.22460938 157.00976562 C24.25154861 171.42225455 19.69165985 184.21190994 10 195 C8.99646484 196.14275391 8.99646484 196.14275391 7.97265625 197.30859375 C-3.88417603 210.02306309 -20.64544815 216.68486068 -37.8828125 217.3359375 C-59.53261818 217.64893016 -76.9797077 214.3088062 -94 200 C-94.79664063 199.40703125 -95.59328125 198.8140625 -96.4140625 198.203125 C-99.53851941 195.54120099 -101.93875008 192.61564861 -104.4375 189.375 C-104.91541992 188.75834473 -105.39333984 188.14168945 -105.88574219 187.50634766 C-116.17457496 174.04983962 -116.17457496 174.04983962 -115.83447266 170.05639648 C-114.67202973 167.19178069 -113.14726587 166.5234904 -110.4765625 165.01171875 C-109.54215332 164.47313232 -108.60774414 163.9345459 -107.64501953 163.37963867 C-106.15010986 162.54203003 -106.15010986 162.54203003 -104.625 161.6875 C-102.61381674 160.53258393 -100.60339154 159.37634671 -98.59375 158.21875 C-97.14355469 157.38923828 -97.14355469 157.38923828 -95.6640625 156.54296875 C-91.01068864 153.84783286 -86.49220493 150.95539798 -82 148 C-78.51260171 151.1604547 -75.88296503 154.50990517 -73.1875 158.375 C-67.06858861 166.86841431 -60.22419855 172.98739391 -50 176 C-40.20305826 177.33116968 -32.47971591 175.55924747 -24.625 169.625 C-20.13656452 165.13656452 -18.79893258 161.52286326 -18.4375 155.25 C-18.70840856 145.73286462 -24.07506332 139.29803336 -30.76171875 132.9765625 C-34.53446744 129.64495546 -38.41686139 126.46342601 -42.34863281 123.32177734 C-103.43922007 74.42401871 -103.43922007 74.42401871 -108 48 C-109.02214258 37.52532008 -108.93556264 27.50606888 -104 18 C-103.50242187 17.00613281 -103.00484375 16.01226563 -102.4921875 14.98828125 C-94.36644816 -0.07268212 -81.20753661 -9.78096934 -65 -15 C-41.75464552 -20.34503959 -18.56401483 -14.97407025 0 0 Z " fill="#FDFEFD" transform="translate(1047,677)"/>
<path d="M0 0 C16.04699909 1.86312313 31.49775662 9.65175806 41.87109375 22.27734375 C52.02049764 36.09362905 56.1416895 51.51043572 56.16113281 68.45581055 C56.16858017 70.01534454 56.16858017 70.01534454 56.17617798 71.60638428 C56.19074169 75.03316923 56.19758941 78.45990799 56.203125 81.88671875 C56.20887808 84.2699229 56.21463579 86.65312705 56.22039795 89.03633118 C56.23088923 94.02528092 56.23674519 99.01421462 56.24023438 104.00317383 C56.24573698 110.40596693 56.26981052 116.8085493 56.29820633 123.21127605 C56.31678948 128.12936535 56.32203584 133.04740322 56.32357025 137.96552467 C56.32660348 140.32710748 56.33465441 142.68868924 56.34775543 145.05023766 C56.36473683 148.34444901 56.36295579 151.63813616 56.35644531 154.93237305 C56.3656601 155.91268997 56.37487488 156.8930069 56.3843689 157.9030304 C56.37879974 158.79879791 56.37323059 159.69456543 56.36749268 160.61747742 C56.36895924 161.39597392 56.3704258 162.17447042 56.3719368 162.97655773 C55.90103624 165.5383911 55.03809286 166.42455963 53 168 C50.76123047 168.38095093 50.76123047 168.38095093 48.1171875 168.38818359 C47.12605957 168.39764008 46.13493164 168.40709656 45.11376953 168.4168396 C44.04497559 168.41076691 42.97618164 168.40469421 41.875 168.3984375 C40.22733643 168.40274277 40.22733643 168.40274277 38.54638672 168.40713501 C36.22297653 168.40917736 33.89954922 168.40363563 31.57617188 168.39111328 C28.01393288 168.37506278 24.45282858 168.39095698 20.890625 168.41015625 C18.63541415 168.40817385 16.38020402 168.40433024 14.125 168.3984375 C13.05620605 168.40451019 11.98741211 168.41058289 10.88623047 168.4168396 C9.39953857 168.40265488 9.39953857 168.40265488 7.8828125 168.38818359 C7.01027832 168.38579681 6.13774414 168.38341003 5.23876953 168.38095093 C2.39353609 167.89680359 1.70021029 167.32442456 0 165 C-0.36914349 162.05399036 -0.36914349 162.05399036 -0.36076355 158.37519836 C-0.36460846 157.36067424 -0.36460846 157.36067424 -0.36853105 156.32565469 C-0.37348087 154.05450871 -0.35695706 151.7840244 -0.34057617 149.51293945 C-0.33973015 147.88690202 -0.34020455 146.26086343 -0.34190369 144.63482666 C-0.34276606 140.2156238 -0.32510123 135.79666416 -0.30418181 131.37751794 C-0.28545528 126.76106508 -0.28366775 122.14460693 -0.28010559 117.52812195 C-0.27077328 108.78396563 -0.24614347 100.03992154 -0.21605712 91.29581469 C-0.18254999 81.34189954 -0.16603639 71.38797908 -0.15097082 61.43402159 C-0.11959494 40.9559517 -0.06681141 20.47798291 0 0 Z " fill="#F9822B" transform="translate(746,1302)"/>
<path d="M0 0 C5.48009503 4.13238436 9.38756754 9.28770261 11.5625 15.8125 C12.26244954 25.48557322 12.25610097 32.89881178 6.08984375 40.66796875 C-2.36390979 50.041043 -14.31391331 52.96514398 -26.5078125 54.09765625 C-39.35790018 54.49172561 -52.81473249 51.69397085 -62.56640625 42.890625 C-69.42043851 35.50715809 -71.09185061 29.31495336 -70.84765625 19.32421875 C-70.05117478 12.50482028 -67.25463416 7.18443245 -62.25 2.5 C-45.00541047 -10.73334805 -18.26077273 -11.59842286 0 0 Z " fill="#F9822B" transform="translate(800.4375,1220.1875)"/>
<path d="M0 0 C4.21779226 1.70506496 6.34294578 4.35885162 9 8 C9.81404297 7.25943359 9.81404297 7.25943359 10.64453125 6.50390625 C11.35996094 5.86324219 12.07539062 5.22257812 12.8125 4.5625 C13.52019531 3.92441406 14.22789062 3.28632812 14.95703125 2.62890625 C19.38171432 -0.89899593 24.61051942 -0.44562008 30 0 C34.76658117 1.50059037 36.77906294 3.53251661 39.23828125 7.890625 C41.08157558 12.99513238 41.12240792 18.43748204 41.09765625 23.80859375 C41.09282227 25.66967773 41.09282227 25.66967773 41.08789062 27.56835938 C41.07532227 29.48358398 41.07532227 29.48358398 41.0625 31.4375 C41.05798828 32.74138672 41.05347656 34.04527344 41.04882812 35.38867188 C41.03709251 38.59249552 41.02067363 41.79622363 41 45 C38.69 45 36.38 45 34 45 C33.98541748 44.05680908 33.97083496 43.11361816 33.95581055 42.1418457 C33.89460394 38.62841339 33.82042492 35.11574554 33.73754883 31.6027832 C33.70438084 30.08498379 33.67632368 28.56706344 33.65356445 27.04907227 C33.61986722 24.86161981 33.56754796 22.67526736 33.51171875 20.48828125 C33.48553467 19.17384033 33.45935059 17.85939941 33.43237305 16.50512695 C32.90040061 12.19257572 31.69847789 9.33451834 28.25 6.625 C24.85374969 5.68159714 22.40246299 6.16430734 19 7 C15.05351389 9.45559136 13.19623327 11.51412522 12 16 C11.05654416 22.48826852 10.73035586 29.01885194 10.4375 35.5625 C10.37272461 36.93245117 10.37272461 36.93245117 10.30664062 38.33007812 C10.20188243 40.55327991 10.09970983 42.77656707 10 45 C8.02 45 6.04 45 4 45 C3.98541748 44.12786865 3.97083496 43.2557373 3.95581055 42.35717773 C3.89442628 39.09340004 3.82021612 35.83042043 3.73754883 32.56713867 C3.70448006 31.1600222 3.67639296 29.75277884 3.65356445 28.34545898 C3.61968201 26.31179176 3.56735782 24.27926865 3.51171875 22.24609375 C3.48553467 21.02591553 3.45935059 19.8057373 3.43237305 18.54858398 C2.8833011 14.04222556 1.83118365 9.56958599 -1.75 6.5 C-5.13745266 5.74723274 -7.64083448 6.1749418 -11 7 C-14.41465579 9.20055595 -16.6732463 11.13030171 -18 15 C-19.11242841 21.28394675 -19.32135167 27.56881209 -19.5625 33.9375 C-19.62727539 35.53561523 -19.62727539 35.53561523 -19.69335938 37.16601562 C-19.79874489 39.77723443 -19.90087088 42.38853746 -20 45 C-21.98 45 -23.96 45 -26 45 C-26 30.48 -26 15.96 -26 1 C-24.02 1 -22.04 1 -20 1 C-19.67 2.65 -19.34 4.3 -19 6 C-18.05125 5.195625 -17.1025 4.39125 -16.125 3.5625 C-11.06197495 -0.73006472 -6.50542941 -0.51854872 0 0 Z " fill="#000000" transform="translate(777,1523)"/>
<path d="M0 0 C4.21779226 1.70506496 6.34294578 4.35885162 9 8 C9.81404297 7.25943359 9.81404297 7.25943359 10.64453125 6.50390625 C11.35996094 5.86324219 12.07539062 5.22257812 12.8125 4.5625 C13.52019531 3.92441406 14.22789062 3.28632812 14.95703125 2.62890625 C19.38171432 -0.89899593 24.61051942 -0.44562008 30 0 C34.76658117 1.50059037 36.77906294 3.53251661 39.23828125 7.890625 C41.08157558 12.99513238 41.12240792 18.43748204 41.09765625 23.80859375 C41.09282227 25.66967773 41.09282227 25.66967773 41.08789062 27.56835938 C41.07532227 29.48358398 41.07532227 29.48358398 41.0625 31.4375 C41.05798828 32.74138672 41.05347656 34.04527344 41.04882812 35.38867188 C41.03709251 38.59249552 41.02067363 41.79622363 41 45 C38.69 45 36.38 45 34 45 C33.98541748 44.05680908 33.97083496 43.11361816 33.95581055 42.1418457 C33.89460394 38.62841339 33.82042492 35.11574554 33.73754883 31.6027832 C33.70438084 30.08498379 33.67632368 28.56706344 33.65356445 27.04907227 C33.61986722 24.86161981 33.56754796 22.67526736 33.51171875 20.48828125 C33.48553467 19.17384033 33.45935059 17.85939941 33.43237305 16.50512695 C32.90040061 12.19257572 31.69847789 9.33451834 28.25 6.625 C24.85374969 5.68159714 22.40246299 6.16430734 19 7 C15.05351389 9.45559136 13.19623327 11.51412522 12 16 C11.05654416 22.48826852 10.73035586 29.01885194 10.4375 35.5625 C10.37272461 36.93245117 10.37272461 36.93245117 10.30664062 38.33007812 C10.20188243 40.55327991 10.09970983 42.77656707 10 45 C8.02 45 6.04 45 4 45 C3.98541748 44.12786865 3.97083496 43.2557373 3.95581055 42.35717773 C3.89442628 39.09340004 3.82021612 35.83042043 3.73754883 32.56713867 C3.70448006 31.1600222 3.67639296 29.75277884 3.65356445 28.34545898 C3.61968201 26.31179176 3.56735782 24.27926865 3.51171875 22.24609375 C3.48553467 21.02591553 3.45935059 19.8057373 3.43237305 18.54858398 C2.8833011 14.04222556 1.83118365 9.56958599 -1.75 6.5 C-5.13745266 5.74723274 -7.64083448 6.1749418 -11 7 C-14.41465579 9.20055595 -16.6732463 11.13030171 -18 15 C-19.11242841 21.28394675 -19.32135167 27.56881209 -19.5625 33.9375 C-19.62727539 35.53561523 -19.62727539 35.53561523 -19.69335938 37.16601562 C-19.79874489 39.77723443 -19.90087088 42.38853746 -20 45 C-21.98 45 -23.96 45 -26 45 C-26 30.48 -26 15.96 -26 1 C-24.02 1 -22.04 1 -20 1 C-19.67 2.65 -19.34 4.3 -19 6 C-18.05125 5.195625 -17.1025 4.39125 -16.125 3.5625 C-11.06197495 -0.73006472 -6.50542941 -0.51854872 0 0 Z " fill="#000000" transform="translate(703,1523)"/>
<path d="M0 0 C2.31 0 4.62 0 7 0 C7 20.13 7 40.26 7 61 C4.69 61 2.38 61 0 61 C0 59.35 0 57.7 0 56 C-0.54269531 56.34933594 -1.08539062 56.69867187 -1.64453125 57.05859375 C-2.35996094 57.51363281 -3.07539062 57.96867187 -3.8125 58.4375 C-4.87404297 59.11619141 -4.87404297 59.11619141 -5.95703125 59.80859375 C-11.26150562 62.90202526 -17.04864262 62.5224474 -23 62 C-29.7106078 60.22632084 -34.08739939 55.53833494 -38 50 C-40.92915577 44.26904305 -41.08336486 36.93576854 -39.3828125 30.7578125 C-36.66892783 24.58552614 -31.63592271 19.78231505 -25.609375 16.828125 C-19.34651241 14.84050993 -12.30418462 14.97002472 -6.375 17.875 C-3 20 -3 20 -1 22 C-0.67 14.74 -0.34 7.48 0 0 Z M-29.9375 28.0625 C-33.53923538 33.19224433 -33.5126429 37.92423231 -33 44 C-30.96554106 49.99035133 -27.0367155 53.19438538 -21.6875 56.375 C-16.93376973 57.48051867 -12.39960845 57.15365791 -7.96875 55.0234375 C-2.51802672 51.44351331 -0.55844161 47.47309858 0.875 41.125 C1.41857238 35.20232592 -0.59943257 30.75070929 -4.25 26.1875 C-8.01935173 23.18915203 -11.68330498 21.41581706 -16.4375 20.5625 C-21.82698055 21.48265522 -26.36362994 23.9085235 -29.9375 28.0625 Z " fill="#000000" transform="translate(972,1507)"/>
<path d="M0 0 C2.58053586 1.85617492 4.71701594 3.76774892 7 6 C6.02851946 8.50965806 5.54736259 9.73850694 3.0703125 10.921875 C1 11 1 11 -0.5703125 9.890625 C-1.08335937 9.34921875 -1.59640625 8.8078125 -2.125 8.25 C-7.16442604 3.59988584 -12.86898234 2.32958081 -19.5625 1.625 C-27.38119046 2.47794805 -33.7824712 4.94224578 -39 11 C-42.96363399 17.25266273 -44.85587378 23.55761927 -44 31 C-42.42314323 37.9903969 -39.99864098 43.18611119 -34.27734375 47.62890625 C-27.74005592 51.56473477 -20.31943842 53.1419188 -12.81640625 51.53125 C-7.0706622 49.90345068 -3.20993899 47.18286543 1 43 C2.65 43.66 4.3 44.32 6 45 C6 46.32 6 47.64 6 49 C4.05859375 50.8515625 4.05859375 50.8515625 1.4375 52.625 C0.59058594 53.21539063 -0.25632812 53.80578125 -1.12890625 54.4140625 C-9.93722803 59.27961168 -21.32695286 59.4287165 -31.046875 57.34765625 C-39.10933867 54.43064688 -45.01374772 49.42457943 -48.9375 41.8125 C-52.92617268 33.22671305 -53.38362702 24.225865 -50.375 15.1875 C-47.07918037 7.17842783 -41.86644753 1.69128557 -34 -2 C-23.05532827 -5.72668034 -10.27412488 -5.63199537 0 0 Z " fill="#000000" transform="translate(614,1511)"/>
<path d="M0 0 C5.01065408 3.04295087 8.48824072 7.18403615 10.875 12.5 C11.5 15.4375 11.5 15.4375 11.5 21.4375 C-1.37 21.7675 -14.24 22.0975 -27.5 22.4375 C-24.44536999 32.06203938 -24.44536999 32.06203938 -17.25 37.8125 C-11.79373922 39.05255927 -7.10864149 38.28734833 -2.1875 35.6875 C0.46183743 33.46945006 2.48072513 31.23341905 4.5 28.4375 C6.48 29.0975 8.46 29.7575 10.5 30.4375 C7.43645398 36.44676334 4.46103358 40.49113005 -1.765625 43.55078125 C-8.31409863 45.6743577 -16.74347192 45.70671133 -23.0625 42.8125 C-28.73788697 39.35633486 -32.92479399 33.91869115 -34.5 27.4375 C-35.56912541 19.13121795 -34.55738576 12.24924206 -29.5 5.4375 C-21.66415494 -2.04771386 -10.23085013 -4.64858045 0 0 Z M-24.9375 9.9375 C-26.74503628 12.54354849 -26.74503628 12.54354849 -27.5 16.4375 C-16.94 16.4375 -6.38 16.4375 4.5 16.4375 C1.48251273 9.39669637 0.29400935 7.01833723 -6.5 4.1875 C-13.95344803 2.32413799 -19.59365404 4.45663235 -24.9375 9.9375 Z " fill="#000000" transform="translate(1427.5,1524.5625)"/>
<path d="M0 0 C5.01065408 3.04295087 8.48824072 7.18403615 10.875 12.5 C11.5 15.4375 11.5 15.4375 11.5 21.4375 C-1.37 21.7675 -14.24 22.0975 -27.5 22.4375 C-24.44536999 32.06203938 -24.44536999 32.06203938 -17.25 37.8125 C-11.79373922 39.05255927 -7.10864149 38.28734833 -2.1875 35.6875 C0.46183743 33.46945006 2.48072513 31.23341905 4.5 28.4375 C6.48 29.0975 8.46 29.7575 10.5 30.4375 C7.43645398 36.44676334 4.46103358 40.49113005 -1.765625 43.55078125 C-8.31409863 45.6743577 -16.74347192 45.70671133 -23.0625 42.8125 C-28.73788697 39.35633486 -32.92479399 33.91869115 -34.5 27.4375 C-35.56912541 19.13121795 -34.55738576 12.24924206 -29.5 5.4375 C-21.66415494 -2.04771386 -10.23085013 -4.64858045 0 0 Z M-24.9375 9.9375 C-26.74503628 12.54354849 -26.74503628 12.54354849 -27.5 16.4375 C-16.94 16.4375 -6.38 16.4375 4.5 16.4375 C1.48251273 9.39669637 0.29400935 7.01833723 -6.5 4.1875 C-13.95344803 2.32413799 -19.59365404 4.45663235 -24.9375 9.9375 Z " fill="#000000" transform="translate(1200.5,1524.5625)"/>
<path d="M0 0 C5.01065408 3.04295087 8.48824072 7.18403615 10.875 12.5 C11.5 15.4375 11.5 15.4375 11.5 21.4375 C-1.37 21.7675 -14.24 22.0975 -27.5 22.4375 C-24.44536999 32.06203938 -24.44536999 32.06203938 -17.25 37.8125 C-11.79373922 39.05255927 -7.10864149 38.28734833 -2.1875 35.6875 C0.46183743 33.46945006 2.48072513 31.23341905 4.5 28.4375 C6.48 29.0975 8.46 29.7575 10.5 30.4375 C7.43645398 36.44676334 4.46103358 40.49113005 -1.765625 43.55078125 C-8.31409863 45.6743577 -16.74347192 45.70671133 -23.0625 42.8125 C-28.73788697 39.35633486 -32.92479399 33.91869115 -34.5 27.4375 C-35.56912541 19.13121795 -34.55738576 12.24924206 -29.5 5.4375 C-21.66415494 -2.04771386 -10.23085013 -4.64858045 0 0 Z M-24.9375 9.9375 C-26.74503628 12.54354849 -26.74503628 12.54354849 -27.5 16.4375 C-16.94 16.4375 -6.38 16.4375 4.5 16.4375 C1.48251273 9.39669637 0.29400935 7.01833723 -6.5 4.1875 C-13.95344803 2.32413799 -19.59365404 4.45663235 -24.9375 9.9375 Z " fill="#000000" transform="translate(916.5,1524.5625)"/>
<path d="M0 0 C1.98 0 3.96 0 6 0 C6 5.61 6 11.22 6 17 C11.61 17 17.22 17 23 17 C23 11.39 23 5.78 23 0 C24.98 0 26.96 0 29 0 C29 5.61 29 11.22 29 17 C31.97 17 34.94 17 38 17 C38 18.65 38 20.3 38 22 C35.03 22 32.06 22 29 22 C29 34.87 29 47.74 29 61 C27.02 61 25.04 61 23 61 C23 48.13 23 35.26 23 22 C17.39 22 11.78 22 6 22 C6 34.87 6 47.74 6 61 C4.02 61 2.04 61 0 61 C0 48.13 0 35.26 0 22 C-2.64 22 -5.28 22 -8 22 C-8 20.35 -8 18.7 -8 17 C-5.36 17 -2.72 17 0 17 C0 11.39 0 5.78 0 0 Z " fill="#000000" transform="translate(842,1507)"/>
<path d="M0 0 C6.65182379 4.02758107 10.25087806 9.40523524 12.15625 16.890625 C13.29290266 24.01656283 11.70322142 30.53106554 7.5625 36.4375 C3.15418831 41.15994316 -1.15887435 44.10062807 -7.70703125 44.7734375 C-21.06759945 44.92074255 -21.06759945 44.92074255 -26.4375 40.4375 C-32.71380091 33.69680911 -34.9229495 27.618726 -34.75390625 18.4453125 C-34.04048514 11.66340812 -30.67389979 6.7218271 -25.4375 2.4375 C-18.17854837 -2.83388154 -8.22653061 -3.64746367 0 0 Z M-23.75 9.5 C-27.06627289 13.72557353 -28.32021471 18.09264176 -28.4375 23.4375 C-27.47977369 29.0470398 -24.89816591 32.88924303 -20.4375 36.4375 C-15.85548808 39.03109165 -12.46181963 39.93623993 -7.35546875 39.0078125 C-1.48722831 37.26287746 1.60255474 33.5899973 4.5625 28.4375 C6.37270278 23.00689165 6.26347747 18.34006228 3.875 13.1875 C1.02561526 8.07064712 -2.82188262 5.12218521 -8.4375 3.4375 C-14.56238821 2.63159366 -19.59042254 5.19838818 -23.75 9.5 Z " fill="#000000" transform="translate(1061.4375,1524.5625)"/>
<path d="M0 0 C6.65182379 4.02758107 10.25087806 9.40523524 12.15625 16.890625 C13.29290266 24.01656283 11.70322142 30.53106554 7.5625 36.4375 C3.15418831 41.15994316 -1.15887435 44.10062807 -7.70703125 44.7734375 C-21.06759945 44.92074255 -21.06759945 44.92074255 -26.4375 40.4375 C-32.71380091 33.69680911 -34.9229495 27.618726 -34.75390625 18.4453125 C-34.04048514 11.66340812 -30.67389979 6.7218271 -25.4375 2.4375 C-18.17854837 -2.83388154 -8.22653061 -3.64746367 0 0 Z M-23.75 9.5 C-27.06627289 13.72557353 -28.32021471 18.09264176 -28.4375 23.4375 C-27.47977369 29.0470398 -24.89816591 32.88924303 -20.4375 36.4375 C-15.85548808 39.03109165 -12.46181963 39.93623993 -7.35546875 39.0078125 C-1.48722831 37.26287746 1.60255474 33.5899973 4.5625 28.4375 C6.37270278 23.00689165 6.26347747 18.34006228 3.875 13.1875 C1.02561526 8.07064712 -2.82188262 5.12218521 -8.4375 3.4375 C-14.56238821 2.63159366 -19.59042254 5.19838818 -23.75 9.5 Z " fill="#000000" transform="translate(659.4375,1524.5625)"/>
<path d="M0 0 C1.98 0 3.96 0 6 0 C6.33 7.59 6.66 15.18 7 23 C8.65 21.35 10.3 19.7 12 18 C17.140573 15.30770623 22.32808835 15.46022593 28 16 C32.60636818 17.80249189 35.12677674 21.0892239 38 25 C39.36038987 28.70796531 39.1131671 32.48189157 39.09765625 36.390625 C39.0962413 37.09523865 39.09482635 37.79985229 39.09336853 38.52581787 C39.08778933 40.76725584 39.07524073 43.00859243 39.0625 45.25 C39.05748231 46.77343605 39.05291987 48.29687368 39.04882812 49.8203125 C39.03782674 53.54690772 39.02057646 57.27344396 39 61 C37.02 61 35.04 61 33 61 C32.970271 59.88927124 32.970271 59.88927124 32.93994141 58.75610352 C32.84390394 55.35791589 32.73454684 51.9602779 32.625 48.5625 C32.5940625 47.39783203 32.563125 46.23316406 32.53125 45.03320312 C32.63245086 34.11171496 32.63245086 34.11171496 28.66650391 24.31469727 C25.81730375 22.06697637 22.50880311 21.89347087 19 22 C13.63663248 23.8565503 10.52750556 26.94498889 8 32 C7.77627304 34.17550114 7.60717019 36.35672381 7.46484375 38.5390625 C7.37783203 39.84101562 7.29082031 41.14296875 7.20117188 42.484375 C7.11318888 43.86457745 7.02529947 45.24478587 6.9375 46.625 C6.84609599 48.01304676 6.75430391 49.40106802 6.66210938 50.7890625 C6.43757861 54.19247618 6.21704824 57.59610227 6 61 C4.02 61 2.04 61 0 61 C0 40.87 0 20.74 0 0 Z " fill="#000000" transform="translate(1122,1507)"/>
<path d="M0 0 C2.31 0 4.62 0 7 0 C7.0093457 0.90766113 7.01869141 1.81532227 7.02832031 2.75048828 C7.07250484 6.13926814 7.13419111 9.52681226 7.20751953 12.91503906 C7.2356311 14.37748705 7.25689431 15.8400842 7.27099609 17.30273438 C7.29256419 19.41353169 7.33927656 21.52255429 7.390625 23.6328125 C7.41157227 24.90012207 7.43251953 26.16743164 7.45410156 27.47314453 C8.09004259 31.5817331 9.42482384 33.77354034 12 37 C15.79118257 39.49134854 19.4928494 39.21515583 23.84375 38.61328125 C27.23414149 37.64898512 28.90683888 35.74727397 31 33 C32.14294314 29.57117059 32.20964472 26.75917162 32.31640625 23.14453125 C32.33718735 22.48289474 32.35796844 21.82125824 32.37937927 21.13957214 C32.44464727 19.03065148 32.50365344 16.92160865 32.5625 14.8125 C32.60570689 13.38084685 32.64932188 11.94920596 32.69335938 10.51757812 C32.80030506 7.01184846 32.90163641 3.50598214 33 0 C35.31 0 37.62 0 40 0 C40.05880857 3.95826931 40.09386513 7.91642392 40.125 11.875 C40.14175781 12.98359375 40.15851563 14.0921875 40.17578125 15.234375 C40.28537463 33.86525041 40.28537463 33.86525041 34 41 C28.46707614 45.57067624 23.43584582 45.44136558 16.40234375 45.43359375 C11.19367051 44.76980187 7.97850016 42.95626152 4.25 39.3125 C-1.35723526 31.91322718 -0.24104815 22.28395239 -0.125 13.5 C-0.11597656 12.200625 -0.10695313 10.90125 -0.09765625 9.5625 C-0.07421733 6.37480701 -0.0414044 3.1875018 0 0 Z " fill="#000000" transform="translate(1327,1524)"/>
<path d="M0 0 C2.31 0 4.62 0 7 0 C7.0093457 0.90766113 7.01869141 1.81532227 7.02832031 2.75048828 C7.07250484 6.13926814 7.13419111 9.52681226 7.20751953 12.91503906 C7.2356311 14.37748705 7.25689431 15.8400842 7.27099609 17.30273438 C7.29256419 19.41353169 7.33927656 21.52255429 7.390625 23.6328125 C7.41157227 24.90012207 7.43251953 26.16743164 7.45410156 27.47314453 C8.09004259 31.5817331 9.42482384 33.77354034 12 37 C15.79118257 39.49134854 19.4928494 39.21515583 23.84375 38.61328125 C27.23414149 37.64898512 28.90683888 35.74727397 31 33 C32.14294314 29.57117059 32.20964472 26.75917162 32.31640625 23.14453125 C32.33718735 22.48289474 32.35796844 21.82125824 32.37937927 21.13957214 C32.44464727 19.03065148 32.50365344 16.92160865 32.5625 14.8125 C32.60570689 13.38084685 32.64932188 11.94920596 32.69335938 10.51757812 C32.80030506 7.01184846 32.90163641 3.50598214 33 0 C35.31 0 37.62 0 40 0 C40.05880857 3.95826931 40.09386513 7.91642392 40.125 11.875 C40.14175781 12.98359375 40.15851563 14.0921875 40.17578125 15.234375 C40.28537463 33.86525041 40.28537463 33.86525041 34 41 C28.46707614 45.57067624 23.43584582 45.44136558 16.40234375 45.43359375 C11.19367051 44.76980187 7.97850016 42.95626152 4.25 39.3125 C-1.35723526 31.91322718 -0.24104815 22.28395239 -0.125 13.5 C-0.11597656 12.200625 -0.10695313 10.90125 -0.09765625 9.5625 C-0.07421733 6.37480701 -0.0414044 3.1875018 0 0 Z " fill="#000000" transform="translate(1257,1524)"/>
<path d="M0 0 C0.86882812 0.02449219 1.73765625 0.04898437 2.6328125 0.07421875 C4.875 0.3125 4.875 0.3125 6.875 1.3125 C6.875 3.2925 6.875 5.2725 6.875 7.3125 C5.76125 7.126875 4.6475 6.94125 3.5 6.75 C0.04931139 5.99569343 0.04931139 5.99569343 -2.125 7.3125 C-2.5933265 9.89855332 -2.5933265 9.89855332 -2.75 12.875 C-2.82476563 13.88691406 -2.89953125 14.89882812 -2.9765625 15.94140625 C-3.02554687 16.72386719 -3.07453125 17.50632812 -3.125 18.3125 C-0.155 18.3125 2.815 18.3125 5.875 18.3125 C5.875 19.9625 5.875 21.6125 5.875 23.3125 C2.905 23.3125 -0.065 23.3125 -3.125 23.3125 C-3.125 36.1825 -3.125 49.0525 -3.125 62.3125 C-5.105 62.3125 -7.085 62.3125 -9.125 62.3125 C-9.125 49.4425 -9.125 36.5725 -9.125 23.3125 C-11.105 23.3125 -13.085 23.3125 -15.125 23.3125 C-15.125 21.6625 -15.125 20.0125 -15.125 18.3125 C-13.145 18.3125 -11.165 18.3125 -9.125 18.3125 C-9.17140625 17.34828125 -9.2178125 16.3840625 -9.265625 15.390625 C-9.31976562 13.49570313 -9.31976562 13.49570313 -9.375 11.5625 C-9.42140625 10.30953125 -9.4678125 9.0565625 -9.515625 7.765625 C-9.125 4.3125 -9.125 4.3125 -7.4296875 1.87890625 C-4.6903224 0.01706658 -3.27866834 -0.14191251 0 0 Z " fill="#000000" transform="translate(1248.125,1505.6875)"/>
<path d="M0 0 C1.98 0 3.96 0 6 0 C6 5.61 6 11.22 6 17 C8.97 17 11.94 17 15 17 C15 18.65 15 20.3 15 22 C12.03 22 9.06 22 6 22 C6 34.87 6 47.74 6 61 C4.02 61 2.04 61 0 61 C0 48.13 0 35.26 0 22 C-2.64 22 -5.28 22 -8 22 C-8 20.35 -8 18.7 -8 17 C-5.36 17 -2.72 17 0 17 C0 11.39 0 5.78 0 0 Z " fill="#000000" transform="translate(1309,1507)"/>
<path d="M0 0 C1.98 0 3.96 0 6 0 C6 5.61 6 11.22 6 17 C8.97 17 11.94 17 15 17 C15 18.65 15 20.3 15 22 C12.03 22 9.06 22 6 22 C6 34.87 6 47.74 6 61 C4.02 61 2.04 61 0 61 C0 48.13 0 35.26 0 22 C-2.64 22 -5.28 22 -8 22 C-8 20.35 -8 18.7 -8 17 C-5.36 17 -2.72 17 0 17 C0 11.39 0 5.78 0 0 Z " fill="#000000" transform="translate(1103,1507)"/>
<path d="M0 0 C1.98 0 3.96 0 6 0 C6 5.61 6 11.22 6 17 C8.97 17 11.94 17 15 17 C15 18.65 15 20.3 15 22 C12.03 22 9.06 22 6 22 C6 34.87 6 47.74 6 61 C4.02 61 2.04 61 0 61 C0 48.13 0 35.26 0 22 C-2.64 22 -5.28 22 -8 22 C-8 20.35 -8 18.7 -8 17 C-5.36 17 -2.72 17 0 17 C0 11.39 0 5.78 0 0 Z " fill="#000000" transform="translate(1010,1507)"/>
<path d="M0 0 C0.66 0.66 1.32 1.32 2 2 C0.9375 3.9375 0.9375 3.9375 -1 6 C-2.7015625 6.2165625 -2.7015625 6.2165625 -4.4375 6.4375 C-8.02320351 6.69880913 -8.02320351 6.69880913 -10.3125 8.875 C-15.97442618 19.36004848 -14.62156263 33.37458866 -15 45 C-16.98 45 -18.96 45 -21 45 C-21 30.48 -21 15.96 -21 1 C-19.02 1 -17.04 1 -15 1 C-14.67 2.32 -14.34 3.64 -14 5 C-13.175 4.175 -12.35 3.35 -11.5 2.5 C-7.66732634 -0.72127095 -4.87979295 -0.56930918 0 0 Z " fill="#000000" transform="translate(1393,1523)"/>
<path d="M0 0 C2.31 0 4.62 0 7 0 C7 14.52 7 29.04 7 44 C4.69 44 2.38 44 0 44 C0 29.48 0 14.96 0 0 Z " fill="#000000" transform="translate(823,1524)"/>
<path d="M0 0 C3.0625 0.1875 3.0625 0.1875 5.0625 2.1875 C5.3125 4.6875 5.3125 4.6875 5.0625 7.1875 C3.0625 9.1875 3.0625 9.1875 0.0625 9.5 C-0.9275 9.396875 -1.9175 9.29375 -2.9375 9.1875 C-4.9375 6.1875 -4.9375 6.1875 -4.625 3.5625 C-3.63731654 0.1505026 -3.65603948 0.23336422 0 0 Z " fill="#000000" transform="translate(825.9375,1505.8125)"/>
</svg>
